<svg width="45" height="47" viewBox="0 0 45 47" fill="none" xmlns="http://www.w3.org/2000/svg">
<g clip-path="url(#clip0_56_8)">
<path d="M29.1093 26.4392L36.6803 34.3466C37.4818 35.1838 37.4569 36.558 36.6242 37.4276L31.6143 42.6602C30.7817 43.5299 29.466 43.5559 28.6644 42.7187L5.50751 18.5327C4.70592 17.6955 4.73002 16.3204 5.56267 15.4507L10.5726 10.2181C11.4053 9.34848 12.7208 9.32226 13.5234 10.1605L21.0153 17.9854L29.1093 26.4392Z" fill="#C4DEF9"/>
<path d="M36.6242 15.4506L31.6142 10.218C30.7842 9.35101 29.4635 9.32477 28.6644 10.1594L5.5065 34.3465C4.70742 35.1811 4.73254 36.5605 5.56262 37.4275L10.5725 42.66C11.4026 43.527 12.7233 43.5532 13.5224 42.7187L36.6803 18.5315C37.4794 17.6969 37.4542 16.3175 36.6242 15.4506Z" fill="#70B6FE"/>
<path d="M12.053 8.81372C11.3072 8.82815 10.596 9.14441 10.0691 9.69581L5.06138 14.9276C3.97027 16.0672 3.92492 17.9261 5.00469 19.0553L12.0742 26.4376L5.00469 33.8213C3.92492 34.9491 3.97027 36.8109 5.06138 37.9505L10.0705 43.1838C11.1616 44.3234 12.9443 44.3708 14.024 43.2415L21.0936 35.8563L28.1645 43.2415C29.2457 44.3708 31.0226 44.3234 32.1137 43.1823L37.1243 37.952C38.2154 36.8124 38.2622 34.952 37.181 33.8228L30.1101 26.4376L37.1796 19.0553C38.2594 17.9261 38.214 16.0672 37.1229 14.9261L32.1137 9.69581C31.0226 8.55621 29.2429 8.50884 28.1617 9.6366L21.0936 17.0203L14.0254 9.63809C13.7666 9.36879 13.4584 9.15692 13.1191 9.01525C12.7799 8.87359 12.4182 8.80503 12.053 8.81372ZM12.0671 10.2819C12.2443 10.278 12.4205 10.3116 12.5849 10.3808C12.7493 10.45 12.8985 10.5533 13.0236 10.6845L20.0917 18.0667L13.076 25.3927L6.00795 18.0075C5.48507 17.4629 5.48932 16.5719 6.06322 15.974L11.0724 10.7422C11.3586 10.4417 11.7157 10.2893 12.0657 10.2834L12.0671 10.2819ZM30.12 10.2819C30.47 10.2893 30.8257 10.4417 31.1119 10.7407L36.1225 15.974C36.6964 16.5734 36.7006 17.4629 36.1778 18.009L28.7016 25.819L28.6931 25.8249C28.629 25.8726 28.5729 25.9311 28.5273 25.998L20.684 34.1943L20.6784 34.1972C20.6426 34.2245 20.6094 34.2552 20.5792 34.289C20.5551 34.3144 20.5329 34.3416 20.5126 34.3704L13.0236 42.1952C12.4993 42.7413 11.6463 42.7368 11.0724 42.136L6.06322 36.9056C5.48932 36.3062 5.48506 35.4123 6.00652 34.8677L29.1635 10.6845C29.2882 10.5531 29.4372 10.4497 29.6014 10.3805C29.7656 10.3113 29.943 10.2777 30.12 10.2819ZM12.0742 12.7091C11.5287 12.7091 10.9831 12.9281 10.5722 13.3573L9.56893 14.4037C9.50126 14.472 9.44727 14.5536 9.41013 14.6439C9.373 14.7342 9.35346 14.8313 9.35264 14.9296C9.35182 15.0278 9.36975 15.1252 9.40538 15.2162C9.441 15.3071 9.49362 15.3897 9.56015 15.4592C9.62667 15.5287 9.70577 15.5837 9.79284 15.6209C9.87992 15.6581 9.97322 15.6768 10.0673 15.6759C10.1614 15.6751 10.2543 15.6547 10.3408 15.6159C10.4272 15.5771 10.5054 15.5207 10.5708 15.4501L11.5726 14.4037C11.6372 14.3326 11.715 14.276 11.8012 14.2373C11.8875 14.1986 11.9803 14.1786 12.0742 14.1786C12.1681 14.1786 12.261 14.1986 12.3472 14.2373C12.4334 14.276 12.5112 14.3326 12.5758 14.4037L16.586 18.5906C16.7191 18.7294 16.8994 18.8073 17.0874 18.8071C17.2754 18.807 17.4557 18.7288 17.5886 18.5899C17.7214 18.4509 17.796 18.2625 17.7958 18.0662C17.7957 17.8698 17.7209 17.6815 17.5878 17.5428L13.5777 13.3573C13.3801 13.1516 13.1456 12.9885 12.8876 12.8775C12.6296 12.7666 12.3532 12.7098 12.0742 12.7106V12.7091ZM32.1067 14.1817C32.0122 14.1815 31.9187 14.2011 31.8315 14.2392C31.7444 14.2773 31.6655 14.3332 31.5994 14.4037C31.4684 14.5444 31.3963 14.7337 31.399 14.93C31.4016 15.1262 31.4788 15.3133 31.6135 15.4501L32.6154 16.4964C32.6832 16.5639 32.7373 16.6451 32.7742 16.735C32.8111 16.8249 32.8302 16.9218 32.8302 17.0196C32.8302 17.1175 32.8111 17.2143 32.7742 17.3042C32.7373 17.3941 32.6832 17.4753 32.6154 17.5428L28.608 21.7297C28.5403 21.798 28.4864 21.8796 28.4492 21.9699C28.4121 22.0602 28.3926 22.1573 28.3918 22.2555C28.3909 22.3538 28.4089 22.4513 28.4445 22.5422C28.4801 22.6332 28.5327 22.7158 28.5992 22.7852C28.6658 22.8547 28.7449 22.9097 28.832 22.9469C28.919 22.9841 29.0123 23.0028 29.1064 23.002C29.2005 23.0011 29.2934 22.9807 29.3799 22.9419C29.4663 22.9031 29.5445 22.8468 29.6099 22.7761L33.6172 18.5906C34.0133 18.1727 34.2356 17.6084 34.2356 17.0203C34.2356 16.4323 34.0133 15.868 33.6172 15.4501L32.6154 14.4037C32.5489 14.3329 32.4695 14.2768 32.3819 14.2386C32.2943 14.2005 32.2002 14.1811 32.1052 14.1817H32.1067ZM21.1049 21.5122C21.01 21.5108 20.9159 21.5293 20.828 21.5667C20.7401 21.6041 20.6603 21.6595 20.5934 21.7297C20.4605 21.8685 20.3859 22.0567 20.3859 22.2529C20.3859 22.4491 20.4605 22.6373 20.5934 22.7761C20.7262 22.9148 20.9064 22.9927 21.0943 22.9927C21.2821 22.9927 21.4623 22.9148 21.5952 22.7761C21.728 22.6373 21.8026 22.4491 21.8026 22.2529C21.8026 22.0567 21.728 21.8685 21.5952 21.7297C21.4651 21.5933 21.2892 21.5153 21.1049 21.5122ZM19.1012 23.6049C19.0063 23.6035 18.9122 23.6221 18.8243 23.6594C18.7365 23.6968 18.6567 23.7523 18.5897 23.8224C18.4569 23.9612 18.3822 24.1494 18.3822 24.3456C18.3822 24.5418 18.4569 24.73 18.5897 24.8688C18.7225 25.0075 18.9027 25.0855 19.0906 25.0855C19.2785 25.0855 19.4587 25.0075 19.5915 24.8688C19.7243 24.73 19.799 24.5418 19.799 24.3456C19.799 24.1494 19.7243 23.9612 19.5915 23.8224C19.4614 23.6861 19.2855 23.608 19.1012 23.6049ZM22.0345 24.6557C21.8686 24.6706 21.7131 24.7461 21.5952 24.8688C21.529 24.9376 21.4765 25.0193 21.4406 25.1094C21.4048 25.1994 21.3863 25.2959 21.3863 25.3935C21.3863 25.491 21.4048 25.5875 21.4406 25.6775C21.4765 25.7676 21.529 25.8493 21.5952 25.9181C21.7281 26.0568 21.9082 26.1348 22.0961 26.1348C22.284 26.1348 22.4642 26.0568 22.597 25.9181C22.6634 25.8493 22.7161 25.7675 22.7521 25.6773C22.7881 25.5871 22.8066 25.4904 22.8066 25.3927C22.8066 25.295 22.7881 25.1983 22.7521 25.1081C22.7161 25.018 22.6634 24.9361 22.597 24.8673C22.5238 24.7911 22.4355 24.7325 22.3383 24.6957C22.2412 24.6589 22.1374 24.6447 22.0345 24.6542V24.6557ZM17.0253 25.7005C16.8589 25.7167 16.7033 25.7937 16.586 25.9181C16.4532 26.0569 16.3786 26.2451 16.3786 26.4413C16.3786 26.6375 16.4532 26.8257 16.586 26.9645C16.7189 27.1032 16.8991 27.1811 17.0869 27.1811C17.2748 27.1811 17.455 27.1032 17.5878 26.9645C17.7207 26.8257 17.7953 26.6375 17.7953 26.4413C17.7953 26.2451 17.7207 26.0569 17.5878 25.9181C17.515 25.8411 17.4269 25.7817 17.3297 25.7441C17.2325 25.7065 17.1286 25.6916 17.0253 25.7005ZM25.04 25.7005C24.8736 25.7167 24.718 25.7937 24.6007 25.9181C24.4679 26.0569 24.3933 26.2451 24.3933 26.4413C24.3933 26.6375 24.4679 26.8257 24.6007 26.9645C24.7336 27.1032 24.9137 27.1811 25.1016 27.1811C25.2895 27.1811 25.4697 27.1032 25.6025 26.9645C25.7354 26.8257 25.81 26.6375 25.81 26.4413C25.81 26.2451 25.7354 26.0569 25.6025 25.9181C25.5297 25.8411 25.4416 25.7817 25.3444 25.7441C25.2472 25.7065 25.1433 25.6916 25.04 25.7005ZM20.0308 26.7469C19.8644 26.763 19.7088 26.8401 19.5915 26.9645C19.4587 27.1032 19.3841 27.2914 19.3841 27.4877C19.3841 27.6839 19.4587 27.8721 19.5915 28.0108C19.7244 28.1496 19.9046 28.2275 20.0924 28.2275C20.2803 28.2275 20.4605 28.1496 20.5934 28.0108C20.7262 27.8721 20.8008 27.6839 20.8008 27.4877C20.8008 27.2914 20.7262 27.1032 20.5934 26.9645C20.5205 26.8874 20.4324 26.828 20.3352 26.7904C20.238 26.7528 20.1341 26.738 20.0308 26.7469ZM29.1082 27.484L36.1792 34.8691C36.7035 35.4167 36.6964 36.3048 36.1225 36.9056L31.1133 42.1374C30.5394 42.7368 29.6892 42.7398 29.1677 42.1952L22.0968 34.8099L29.1082 27.484ZM23.1086 27.7947C23.0138 27.7932 22.9197 27.8115 22.8318 27.8486C22.744 27.8857 22.6641 27.9409 22.597 28.0108C22.4642 28.1496 22.3896 28.3378 22.3896 28.534C22.3896 28.7302 22.4642 28.9184 22.597 29.0572C22.7299 29.1959 22.9101 29.2738 23.0979 29.2738C23.2858 29.2738 23.466 29.1959 23.5989 29.0572C23.7317 28.9184 23.8063 28.7302 23.8063 28.534C23.8063 28.3378 23.7317 28.1496 23.5989 28.0108C23.4688 27.8745 23.2929 27.7964 23.1086 27.7933V27.7947ZM13.0562 29.886C12.8728 29.8914 12.6985 29.971 12.5702 30.108L8.56 34.2949C8.16471 34.7127 7.94301 35.2764 7.94301 35.8637C7.94301 36.4511 8.16471 37.0147 8.56 37.4325L9.56183 38.4804C9.62719 38.551 9.70537 38.6074 9.79181 38.6462C9.87825 38.685 9.97123 38.7054 10.0653 38.7062C10.1594 38.7071 10.2527 38.6884 10.3398 38.6512C10.4268 38.614 10.5059 38.559 10.5724 38.4895C10.639 38.42 10.6916 38.3374 10.7272 38.2465C10.7628 38.1555 10.7808 38.0581 10.7799 37.9598C10.7791 37.8616 10.7596 37.7645 10.7224 37.6742C10.6853 37.5839 10.6313 37.5023 10.5637 37.434L9.56183 36.3876C9.49397 36.3202 9.43994 36.239 9.40302 36.1491C9.3661 36.0591 9.34704 35.9623 9.34704 35.8645C9.34704 35.7666 9.3661 35.6698 9.40302 35.5798C9.43994 35.4899 9.49397 35.4087 9.56183 35.3413L13.572 31.1558C13.6743 31.0518 13.7441 30.918 13.7723 30.7718C13.8005 30.6256 13.7857 30.4739 13.73 30.3366C13.6742 30.1994 13.5801 30.0829 13.4598 30.0025C13.3396 29.922 13.1989 29.8815 13.0562 29.886ZM21.1049 29.886C21.01 29.8846 20.9159 29.9032 20.828 29.9406C20.7401 29.978 20.6603 30.0334 20.5934 30.1035C20.4605 30.2423 20.3859 30.4305 20.3859 30.6267C20.3859 30.823 20.4605 31.0111 20.5934 31.1499C20.7262 31.2886 20.9064 31.3666 21.0943 31.3666C21.2821 31.3666 21.4623 31.2886 21.5952 31.1499C21.728 31.0111 21.8026 30.823 21.8026 30.6267C21.8026 30.4305 21.728 30.2423 21.5952 30.1035C21.4651 29.9672 21.2892 29.8891 21.1049 29.886ZM25.0924 34.064C24.998 34.0644 24.9046 34.0846 24.8177 34.1232C24.7308 34.1618 24.6522 34.2182 24.5865 34.289C24.4564 34.4296 24.3849 34.6182 24.3875 34.8137C24.3902 35.0092 24.4668 35.1957 24.6007 35.3324L28.608 39.5208C29.4327 40.3822 30.7902 40.3822 31.6135 39.5208L32.6154 38.4744C32.683 38.4062 32.737 38.3245 32.7742 38.2342C32.8113 38.144 32.8308 38.0469 32.8316 37.9486C32.8325 37.8504 32.8145 37.7529 32.7789 37.6619C32.7433 37.571 32.6907 37.4884 32.6241 37.4189C32.5576 37.3494 32.4785 37.2945 32.3914 37.2573C32.3044 37.22 32.2111 37.2013 32.117 37.2022C32.0229 37.2031 31.93 37.2234 31.8435 37.2622C31.7571 37.301 31.6789 37.3574 31.6135 37.4281L30.6117 38.4744C30.5471 38.5453 30.4694 38.6018 30.3833 38.6403C30.2972 38.6789 30.2045 38.6988 30.1108 38.6988C30.0171 38.6988 29.9244 38.6789 29.8383 38.6403C29.7522 38.6018 29.6744 38.5453 29.6099 38.4744L25.6025 34.2861C25.5361 34.2152 25.4567 34.1591 25.369 34.1209C25.2814 34.0828 25.1873 34.0634 25.0924 34.064Z" fill="#0572E4"/>
</g>
<defs>
<clipPath id="clip0_56_8">
<rect width="45" height="47" fill="white"/>
</clipPath>
</defs>
</svg>
