<svg width="38" height="44" viewBox="0 0 38 44" fill="none" xmlns="http://www.w3.org/2000/svg">
<path d="M14.509 43.6278C12.5697 43.6278 10.9873 42.93 9.82577 42.1531C8.00417 40.9337 6.89327 39.3259 6.55977 38.797C2.97637 36.4279 1.94735 33.44 1.71827 31.3329C1.58376 30.0813 1.68152 28.8116 2.00531 27.6051C-0.187966 23.4971 0.203034 20.2044 0.934894 18.1468C1.3833 16.8952 2.05813 15.7634 2.91611 14.824C2.85447 11.9947 3.89959 10.2007 4.81177 9.18042C5.35062 8.57856 5.97708 8.08603 6.66373 7.72442C8.00601 4.22378 9.91455 1.93994 12.3332 0.934258C15.901 -0.549822 19.23 1.33258 19.368 1.41318C19.4546 1.46254 19.5318 1.53078 19.595 1.61397C19.6582 1.69715 19.7063 1.79365 19.7364 1.8979C19.7665 2.00215 19.7781 2.11211 19.7705 2.22144C19.7628 2.33077 19.7362 2.43732 19.692 2.53496C19.6478 2.6326 19.587 2.71941 19.5131 2.79038C19.4391 2.86136 19.3535 2.91511 19.2611 2.94854C19.1687 2.98197 19.0713 2.99442 18.9747 2.98517C18.878 2.97592 18.7839 2.94516 18.6978 2.89466C18.6707 2.87958 15.7823 1.26342 12.8268 2.50206C10.7435 3.37462 9.08701 5.45306 7.90481 8.67914C7.86461 8.78824 7.80432 8.8864 7.72794 8.9671C7.65155 9.0478 7.56084 9.10917 7.46183 9.14714C7.32935 9.19914 4.13511 10.522 4.40237 15.1235C4.41042 15.2578 4.38951 15.3924 4.34143 15.5155C4.29336 15.6387 4.21956 15.7469 4.12637 15.8307C4.11625 15.8395 2.94141 16.9227 2.27993 18.8337C1.40087 21.3677 1.79095 24.132 3.43729 27.058C3.50121 27.172 3.53975 27.3018 3.5496 27.4363C3.55946 27.5707 3.54033 27.7059 3.49387 27.8302C3.48927 27.8417 2.96303 29.3039 3.18797 31.2035C3.48605 33.7234 4.91435 35.8242 7.43377 37.4471C7.53609 37.5127 7.62288 37.6053 7.68677 37.717C7.69643 37.7331 8.73787 39.5084 10.6225 40.7522C13.0904 42.3803 15.8095 42.3783 18.7047 40.747C18.8794 40.6486 19.0815 40.6326 19.2667 40.7026C19.4518 40.7726 19.6047 40.9229 19.6919 41.1204C19.779 41.3179 19.7931 41.5464 19.7312 41.7557C19.6692 41.9649 19.5363 42.1378 19.3616 42.2363C17.5676 43.2472 15.941 43.6278 14.509 43.6278Z" fill="black"/>
<path d="M19 42.3413C18.8048 42.3413 18.6176 42.2537 18.4796 42.0976C18.3416 41.9416 18.264 41.73 18.264 41.5093V2.13596C18.264 1.91529 18.3416 1.70367 18.4796 1.54764C18.6176 1.39161 18.8048 1.30396 19 1.30396C19.1952 1.30396 19.3825 1.39161 19.5205 1.54764C19.6585 1.70367 19.736 1.91529 19.736 2.13596V41.5093C19.736 41.73 19.6585 41.9416 19.5205 42.0976C19.3825 42.2537 19.1952 42.3413 19 42.3413ZM12.5219 29.8202C12.3267 29.8253 12.1377 29.7424 11.9965 29.59C11.8553 29.4375 11.7735 29.2279 11.7691 29.0072C11.7646 28.7866 11.8379 28.5729 11.9728 28.4133C12.1077 28.2538 12.2931 28.1613 12.4883 28.1562C13.4798 28.103 14.4121 27.6075 15.0809 26.7783C15.7497 25.9492 16.1004 24.8541 16.056 23.7331C16.0516 23.624 16.0662 23.5149 16.0991 23.4121C16.1319 23.3093 16.1823 23.2149 16.2475 23.1341C16.3126 23.0534 16.3912 22.988 16.4787 22.9415C16.5662 22.8951 16.661 22.8687 16.7575 22.8637H16.792C16.9815 22.8634 17.1637 22.9458 17.3008 23.0936C17.4379 23.2414 17.5193 23.4433 17.528 23.6572C17.5899 25.2192 17.1011 26.7451 16.169 27.9003C15.2369 29.0555 13.9375 29.7456 12.5559 29.8192L12.5219 29.8202ZM7.68405 21.532C7.65653 21.532 7.62904 21.5303 7.60171 21.5268C7.40774 21.5024 7.23026 21.392 7.10828 21.2198C6.98631 21.0476 6.92983 20.8277 6.95127 20.6084C7.0058 20.0558 6.96344 19.4965 6.8266 18.9624C6.68976 18.4283 6.46113 17.93 6.15378 17.4958C5.84644 17.0617 5.46641 16.7003 5.03542 16.4324C4.60443 16.1644 4.13094 15.9951 3.64203 15.9342C3.45086 15.9061 3.27707 15.7943 3.15801 15.6229C3.03896 15.4515 2.98414 15.2342 3.00535 15.0176C3.02656 14.801 3.1221 14.6024 3.27143 14.4646C3.42077 14.3268 3.61197 14.2607 3.80395 14.2806C4.48486 14.3655 5.14429 14.6013 5.74454 14.9746C6.34479 15.3478 6.8741 15.851 7.3022 16.4556C7.7303 17.0602 8.0488 17.7542 8.2395 18.498C8.4302 19.2418 8.48937 20.0208 8.41361 20.7904C8.39393 20.9938 8.30865 21.1819 8.17406 21.3187C8.03948 21.4554 7.86503 21.5314 7.68405 21.532ZM6.00643 29.8202C5.32102 29.8221 4.64208 29.6703 4.00891 29.3737C3.37573 29.077 2.8009 28.6413 2.31769 28.0918C2.24934 28.0144 2.19513 27.9226 2.15818 27.8215C2.12122 27.7205 2.10223 27.6122 2.1023 27.5028C2.10242 27.282 2.18015 27.0703 2.31838 26.9142C2.4566 26.7582 2.644 26.6706 2.83935 26.6707C3.03471 26.6709 3.222 26.7587 3.36005 26.915C3.70764 27.3085 4.12045 27.6206 4.57486 27.8336C5.02926 28.0466 5.51635 28.1562 6.00827 28.1562C6.50018 28.1562 6.98727 28.0466 7.44168 27.8336C7.89608 27.6206 8.30889 27.3085 8.65649 26.915C8.72484 26.8377 8.80598 26.7764 8.89529 26.7346C8.9846 26.6928 9.08031 26.6713 9.17698 26.6713C9.27364 26.6713 9.36936 26.6928 9.45866 26.7346C9.54797 26.7764 9.62911 26.8377 9.69747 26.915C9.76582 26.9923 9.82004 27.084 9.85703 27.1849C9.89402 27.2859 9.91306 27.3941 9.91306 27.5034C9.91306 27.6126 9.89402 27.7208 9.85703 27.8218C9.82004 27.9228 9.76582 28.0145 9.69747 28.0918C9.21391 28.6415 8.6387 29.0773 8.00513 29.374C7.37155 29.6707 6.69221 29.8224 6.00643 29.8202ZM11.8489 24.5547H11.8291C11.7325 24.5518 11.6373 24.5274 11.549 24.483C11.4607 24.4385 11.3811 24.3748 11.3146 24.2955C11.248 24.2162 11.196 24.1229 11.1614 24.0209C11.1268 23.9188 11.1103 23.8101 11.1129 23.7009C11.1308 22.9266 11.2835 22.1638 11.5623 21.4562C11.8411 20.7487 12.2405 20.1101 12.7377 19.5772C13.235 19.0442 13.8202 18.6273 14.4601 18.3501C15.1 18.073 15.7819 17.9412 16.4668 17.9622C16.5635 17.9651 16.6587 17.9895 16.747 18.0339C16.8353 18.0784 16.915 18.1422 16.9815 18.2215C17.0481 18.3008 17.1001 18.3941 17.1347 18.4962C17.1693 18.5982 17.1858 18.707 17.1833 18.8163C17.1807 18.9255 17.1591 19.0331 17.1198 19.133C17.0804 19.2328 17.024 19.3229 16.9539 19.3981C16.8837 19.4733 16.8011 19.5322 16.7109 19.5713C16.6206 19.6104 16.5244 19.6291 16.4277 19.6262C15.936 19.611 15.4465 19.7056 14.9871 19.9045C14.5278 20.1033 14.1076 20.4026 13.7506 20.7852C13.3937 21.1678 13.107 21.6262 12.9069 22.1342C12.7067 22.6422 12.5972 23.1897 12.5844 23.7456C12.5792 23.9622 12.4994 24.1679 12.362 24.319C12.2246 24.4701 12.0406 24.5547 11.8489 24.5547ZM10.2715 12.744C10.1199 12.7439 9.97188 12.6909 9.84788 12.5921C9.72387 12.4934 9.62989 12.3537 9.57879 12.1922C9.34754 11.4632 9.24564 10.6898 9.27893 9.91619C9.31222 9.1426 9.48004 8.38402 9.7728 7.68378C10.0656 6.98355 10.4775 6.3554 10.9851 5.83523C11.4927 5.31506 12.0861 4.91307 12.7312 4.65224C12.8222 4.61539 12.9187 4.59918 13.0153 4.60451C13.1118 4.60984 13.2065 4.63662 13.2939 4.68331C13.3813 4.73 13.4597 4.7957 13.5246 4.87664C13.5895 4.95759 13.6397 5.0522 13.6723 5.15508C13.7049 5.25795 13.7193 5.36707 13.7145 5.47622C13.7098 5.58536 13.6861 5.69238 13.6448 5.79118C13.6035 5.88997 13.5454 5.9786 13.4738 6.05201C13.4022 6.12541 13.3185 6.18215 13.2275 6.219C12.7643 6.40605 12.3383 6.69452 11.9738 7.0679C11.6093 7.44127 11.3135 7.89223 11.1033 8.39496C10.8932 8.89769 10.7727 9.44233 10.749 9.99772C10.7252 10.5531 10.7985 11.1084 10.9648 11.6317C11.0045 11.7573 11.017 11.8918 11.0011 12.024C10.9852 12.1562 10.9414 12.2821 10.8735 12.3911C10.8055 12.5002 10.7153 12.5892 10.6106 12.6506C10.5058 12.712 10.3895 12.744 10.2715 12.744ZM12.7583 38.5271C11.5356 38.5245 10.3523 38.0373 9.41458 37.1503C8.47683 36.2632 7.84394 35.0325 7.62609 33.6724C7.60703 33.564 7.60727 33.4523 7.6268 33.344C7.64634 33.2357 7.68477 33.1329 7.73985 33.0415C7.79494 32.9502 7.86557 32.8722 7.94763 32.8121C8.02969 32.7519 8.12152 32.7109 8.21777 32.6913C8.31401 32.6718 8.41274 32.6741 8.50819 32.6982C8.60363 32.7222 8.69387 32.7676 8.77365 32.8315C8.85342 32.8954 8.92112 32.9767 8.9728 33.0705C9.02448 33.1644 9.0591 33.2689 9.07463 33.3781C9.25139 34.4825 9.80849 35.4626 10.6237 36.1032C11.4389 36.7439 12.4456 36.9929 13.423 36.7955C13.5182 36.7762 13.6157 36.7782 13.7102 36.8015C13.8046 36.8248 13.8941 36.869 13.9734 36.9313C14.0528 36.9937 14.1205 37.0732 14.1727 37.1651C14.2249 37.2571 14.2606 37.3598 14.2777 37.4674C14.2948 37.5749 14.293 37.6852 14.2724 37.792C14.2517 37.8987 14.2127 37.9999 14.1575 38.0896C14.1024 38.1793 14.0321 38.2558 13.9507 38.3149C13.8694 38.3739 13.7785 38.4142 13.6834 38.4335C13.3781 38.4956 13.0685 38.5269 12.7583 38.5271Z" fill="black"/>
<path d="M15.8039 12.0908C15.1184 12.0927 14.4394 11.9408 13.8062 11.6442C13.1729 11.3475 12.598 10.9118 12.1147 10.3623C11.9766 10.2059 11.8992 9.99394 11.8994 9.77301C11.8996 9.55208 11.9775 9.3403 12.1158 9.18425C12.2542 9.0282 12.4417 8.94067 12.6371 8.94092C12.8326 8.94116 13.0199 9.02916 13.158 9.18555C13.5055 9.57902 13.9183 9.89116 14.3726 10.1041C14.827 10.3171 15.3141 10.4267 15.8059 10.4267C16.2978 10.4267 16.7849 10.3171 17.2392 10.1041C17.6936 9.89116 18.1064 9.57902 18.4539 9.18555C18.592 9.02951 18.7792 8.94184 18.9744 8.94184C19.1696 8.94184 19.3569 9.02951 19.4949 9.18555C19.633 9.3416 19.7105 9.55325 19.7105 9.77393C19.7105 9.99462 19.633 10.2063 19.4949 10.3623C19.0114 10.9121 18.4362 11.348 17.8026 11.6447C17.169 11.9414 16.4897 12.093 15.8039 12.0908ZM15.8039 35.0582C15.1184 35.06 14.4394 34.9082 13.8062 34.6115C13.1729 34.3148 12.598 33.8791 12.1147 33.3297C11.9766 33.1733 11.8992 32.9613 11.8994 32.7404C11.8996 32.5194 11.9775 32.3077 12.1158 32.1516C12.2542 31.9956 12.4417 31.908 12.6371 31.9083C12.8326 31.9085 13.0199 31.9965 13.158 32.1529C13.5055 32.5464 13.9183 32.8585 14.3726 33.0715C14.827 33.2845 15.3141 33.3941 15.8059 33.3941C16.2978 33.3941 16.7849 33.2845 17.2392 33.0715C17.6936 32.8585 18.1064 32.5464 18.4539 32.1529C18.592 31.9969 18.7792 31.9092 18.9744 31.9092C19.1696 31.9092 19.3569 31.9969 19.4949 32.1529C19.633 32.309 19.7105 32.5206 19.7105 32.7413C19.7105 32.962 19.633 33.1736 19.4949 33.3297C19.0114 33.8795 18.4362 34.3154 17.8026 34.6121C17.169 34.9088 16.4897 35.0604 15.8039 35.0582Z" fill="black"/>
<path d="M23.491 43.6278C22.059 43.6278 20.4329 43.2472 18.6384 42.2363C18.4637 42.1378 18.3308 41.9649 18.2689 41.7557C18.2069 41.5464 18.2211 41.3179 18.3082 41.1204C18.3953 40.9229 18.5482 40.7726 18.7333 40.7026C18.9185 40.6326 19.1206 40.6486 19.2953 40.747C22.1906 42.3783 24.9096 42.3803 27.3775 40.7522C29.2635 39.5084 30.3036 37.7331 30.3142 37.7154C30.3781 37.6046 30.4645 37.5126 30.5662 37.4471C33.1114 35.8075 34.5425 33.6823 34.8208 31.1296C35.0227 29.2722 34.5117 27.8443 34.5061 27.8302C34.4597 27.7059 34.4406 27.5707 34.4504 27.4363C34.4603 27.3018 34.4988 27.172 34.5627 27.058C36.2091 24.1341 36.5991 21.3677 35.7228 18.8347C35.0614 16.9222 33.8865 15.8406 33.8746 15.8297C33.7813 15.7463 33.7075 15.6386 33.6594 15.5157C33.6113 15.3928 33.5904 15.2586 33.5986 15.1245C33.8681 10.483 30.5722 9.16118 30.5391 9.14818C30.4401 9.11021 30.3494 9.04884 30.273 8.96814C30.1966 8.88744 30.1363 8.78928 30.0961 8.68018C28.9098 5.44682 27.2487 3.3663 25.1585 2.49686C22.1892 1.26186 19.3307 2.87958 19.3022 2.8957C19.1283 2.99617 18.9262 3.01443 18.7404 2.94645C18.5546 2.87848 18.4003 2.72985 18.3114 2.53326C18.2225 2.33666 18.2064 2.10821 18.2665 1.89815C18.3266 1.6881 18.4581 1.51365 18.632 1.41318C18.77 1.33258 22.099 -0.549822 25.6668 0.934258C28.0855 1.93994 29.9908 4.22378 31.3363 7.72338C32.0229 8.08499 32.6494 8.57752 33.1882 9.17938C34.1004 10.1991 35.146 11.9931 35.0839 14.824C35.942 15.7639 36.6169 16.8962 37.0651 18.1483C37.797 20.206 38.188 23.4965 35.9947 27.6066C36.3185 28.8132 36.4163 30.0828 36.2817 31.3345C36.0517 33.4389 35.0236 36.4305 31.4416 38.7986C31.1067 39.3274 29.9958 40.9353 28.1756 42.1547C27.0127 42.93 25.4299 43.6278 23.491 43.6278Z" fill="black"/>
<path d="M19 42.3413C18.8048 42.3413 18.6176 42.2537 18.4796 42.0976C18.3416 41.9416 18.264 41.73 18.264 41.5093V2.13596C18.264 1.91529 18.3416 1.70367 18.4796 1.54764C18.6176 1.39161 18.8048 1.30396 19 1.30396C19.1952 1.30396 19.3824 1.39161 19.5205 1.54764C19.6585 1.70367 19.736 1.91529 19.736 2.13596V41.5093C19.736 41.73 19.6585 41.9416 19.5205 42.0976C19.3824 42.2537 19.1952 42.3413 19 42.3413ZM25.4782 29.8202H25.4442C24.0623 29.7466 22.7627 29.0563 21.8306 27.9008C20.8984 26.7453 20.4098 25.2189 20.472 23.6567C20.481 23.436 20.5671 23.2284 20.7115 23.0796C20.8559 22.9307 21.0466 22.8528 21.2418 22.8629C21.437 22.873 21.6207 22.9704 21.7524 23.1336C21.8841 23.2968 21.953 23.5125 21.944 23.7331C21.8994 24.8544 22.2501 25.9499 22.9191 26.7793C23.5882 27.6087 24.5209 28.1043 25.5127 28.1573C25.7079 28.1623 25.8934 28.2548 26.0282 28.4144C26.1631 28.574 26.2364 28.7876 26.2319 29.0083C26.2275 29.2289 26.1457 29.4385 26.0045 29.591C25.8633 29.7435 25.6743 29.8263 25.4791 29.8213L25.4782 29.8202ZM30.316 21.532C30.135 21.5317 29.9605 21.456 29.8257 21.3194C29.691 21.1828 29.6055 20.9948 29.5856 20.7915C29.5096 20.0215 29.5686 19.2421 29.7593 18.498C29.95 17.7538 30.2686 17.0595 30.6969 16.4546C31.1252 15.8498 31.6548 15.3464 32.2554 14.9732C32.856 14.5999 33.5158 14.3642 34.1971 14.2795C34.389 14.2597 34.5802 14.3257 34.7296 14.4636C34.8789 14.6014 34.9744 14.7999 34.9957 15.0165C35.0169 15.2331 34.962 15.4505 34.843 15.6219C34.7239 15.7933 34.5501 15.905 34.359 15.9331C33.8703 15.9944 33.397 16.1639 32.9663 16.432C32.5356 16.7001 32.1558 17.0615 31.8487 17.4956C31.5416 17.9297 31.3132 18.428 31.1765 18.9619C31.0398 19.4958 30.9975 20.055 31.052 20.6074C31.0735 20.8267 31.017 21.0466 30.895 21.2188C30.773 21.391 30.5956 21.5014 30.4016 21.5257C30.3732 21.5297 30.3446 21.5318 30.316 21.532ZM31.9937 29.8202C31.3082 29.8221 30.6292 29.6703 29.9959 29.3736C29.3627 29.0769 28.7878 28.6412 28.3045 28.0918C28.1664 27.9357 28.0889 27.7241 28.0889 27.5034C28.0889 27.2827 28.1664 27.071 28.3045 26.915C28.4425 26.7589 28.6297 26.6713 28.8249 26.6713C29.0202 26.6713 29.2074 26.7589 29.3454 26.915C29.693 27.3085 30.1058 27.6206 30.5602 27.8336C31.0147 28.0466 31.5017 28.1562 31.9937 28.1562C32.4856 28.1562 32.9727 28.0466 33.4271 27.8336C33.8815 27.6206 34.2943 27.3085 34.6419 26.915C34.7806 26.7628 34.9667 26.6783 35.1601 26.68C35.3534 26.6816 35.5384 26.7692 35.6751 26.9238C35.8118 27.0784 35.8891 27.2875 35.8905 27.5061C35.8919 27.7246 35.8171 27.935 35.6824 28.0918C35.1992 28.6413 34.6243 29.077 33.9912 29.3737C33.358 29.6703 32.6791 29.8221 31.9937 29.8202ZM26.1512 24.5547C25.9594 24.5548 25.7751 24.4702 25.6376 24.319C25.5002 24.1678 25.4204 23.9618 25.4152 23.7451C25.4024 23.1892 25.2929 22.6416 25.0928 22.1337C24.8927 21.6257 24.6059 21.1673 24.249 20.7847C23.892 20.4021 23.4719 20.1028 23.0125 19.9039C22.5531 19.705 22.0636 19.6105 21.5719 19.6256C21.4752 19.6285 21.379 19.6099 21.2888 19.5708C21.1985 19.5316 21.1159 19.4728 21.0457 19.3976C20.9756 19.3224 20.9192 19.2323 20.8799 19.1324C20.8405 19.0326 20.8189 18.925 20.8163 18.8157C20.8138 18.7065 20.8303 18.5977 20.8649 18.4957C20.8995 18.3936 20.9516 18.3003 21.0181 18.2209C21.0846 18.1416 21.1643 18.0779 21.2526 18.0334C21.3409 17.9889 21.4361 17.9645 21.5328 17.9616C22.2178 17.9406 22.8998 18.0724 23.5398 18.3495C24.1797 18.6266 24.7651 19.0436 25.2623 19.5767C25.7596 20.1097 26.1591 20.7483 26.4379 21.4559C26.7167 22.1636 26.8694 22.9265 26.8872 23.7009C26.8898 23.8101 26.8733 23.9188 26.8387 24.0209C26.8041 24.1229 26.752 24.2162 26.6855 24.2955C26.619 24.3748 26.5393 24.4385 26.4511 24.483C26.3628 24.5274 26.2676 24.5518 26.171 24.5547H26.1512ZM27.7285 12.744C27.6105 12.744 27.4941 12.712 27.3893 12.6506C27.2845 12.5891 27.1943 12.5001 27.1264 12.391C27.0584 12.2819 27.0146 12.1559 26.9988 12.0236C26.9829 11.8914 26.9955 11.7568 27.0353 11.6312C27.2016 11.1078 27.2749 10.5526 27.2511 9.9972C27.2273 9.44181 27.1069 8.89717 26.8968 8.39444C26.6866 7.89171 26.3908 7.44075 26.0263 7.06738C25.6618 6.694 25.2358 6.40553 24.7726 6.21847C24.6816 6.18163 24.5979 6.12489 24.5263 6.05149C24.4547 5.97808 24.3966 5.88945 24.3552 5.79066C24.3139 5.69186 24.2903 5.58484 24.2855 5.4757C24.2808 5.36655 24.2952 5.25743 24.3278 5.15456C24.3603 5.05168 24.4105 4.95707 24.4755 4.87612C24.5404 4.79518 24.6188 4.72948 24.7062 4.68279C24.7936 4.6361 24.8883 4.60932 24.9848 4.60399C25.0814 4.59866 25.1779 4.61487 25.2689 4.65172C25.914 4.91255 26.5073 5.31454 27.015 5.83471C27.5226 6.35488 27.9345 6.98303 28.2273 7.68326C28.52 8.3835 28.6879 9.14208 28.7212 9.91566C28.7544 10.6892 28.6525 11.4627 28.4213 12.1917C28.3703 12.3533 28.2763 12.493 28.1523 12.5919C28.0283 12.6908 27.8803 12.7439 27.7285 12.744ZM25.2418 38.5271C24.9316 38.5269 24.622 38.4956 24.3167 38.4335C24.2216 38.4142 24.1307 38.3739 24.0494 38.3149C23.968 38.2558 23.8977 38.1793 23.8425 38.0896C23.7874 37.9999 23.7483 37.8987 23.7277 37.792C23.7071 37.6852 23.7053 37.5749 23.7224 37.4674C23.7395 37.3598 23.7752 37.2571 23.8274 37.1651C23.8796 37.0732 23.9473 36.9937 24.0266 36.9313C24.106 36.869 24.1955 36.8248 24.2899 36.8015C24.3844 36.7782 24.4819 36.7762 24.5771 36.7955C25.5545 36.9929 26.5612 36.7439 27.3764 36.1032C28.1916 35.4626 28.7487 34.4825 28.9255 33.3781C28.941 33.2689 28.9756 33.1644 29.0273 33.0705C29.079 32.9767 29.1467 32.8954 29.2264 32.8315C29.3062 32.7676 29.3965 32.7222 29.4919 32.6982C29.5873 32.6741 29.6861 32.6718 29.7823 32.6913C29.8786 32.7109 29.9704 32.7519 30.0525 32.8121C30.1345 32.8722 30.2051 32.9502 30.2602 33.0415C30.3153 33.1329 30.3537 33.2357 30.3733 33.344C30.3928 33.4523 30.3931 33.564 30.374 33.6724C30.1561 35.0325 29.5232 36.2631 28.5854 37.1501C27.6477 38.0372 26.4645 38.5244 25.2418 38.5271Z" fill="black"/>
<path d="M22.1961 12.0908C21.5107 12.0928 20.8317 11.941 20.1986 11.6443C19.5654 11.3476 18.9906 10.9119 18.5073 10.3624C18.3693 10.2063 18.2917 9.99468 18.2917 9.77399C18.2917 9.5533 18.3693 9.34166 18.5073 9.18561C18.6454 9.02956 18.8326 8.94189 19.0278 8.94189C19.2231 8.94189 19.4103 9.02956 19.5483 9.18561C19.8959 9.57907 20.3086 9.89122 20.763 10.1042C21.2174 10.3172 21.7044 10.4268 22.1963 10.4268C22.6882 10.4268 23.1752 10.3172 23.6296 10.1042C24.084 9.89122 24.4967 9.57907 24.8443 9.18561C24.9127 9.10834 24.9938 9.04705 25.0831 9.00523C25.1724 8.96342 25.2681 8.94189 25.3648 8.94189C25.4615 8.94189 25.5572 8.96342 25.6465 9.00523C25.7358 9.04705 25.8169 9.10834 25.8853 9.18561C25.9536 9.26288 26.0079 9.35461 26.0448 9.45556C26.0818 9.55651 26.1009 9.66472 26.1009 9.77399C26.1009 9.88326 26.0818 9.99146 26.0448 10.0924C26.0079 10.1934 25.9536 10.2851 25.8853 10.3624C25.4019 10.9118 24.827 11.3475 24.1938 11.6442C23.5606 11.9409 22.8816 12.0927 22.1961 12.0908ZM22.1961 35.0582C21.5107 35.0601 20.8317 34.9083 20.1986 34.6116C19.5654 34.3149 18.9906 33.8792 18.5073 33.3297C18.3693 33.1737 18.2917 32.962 18.2917 32.7413C18.2917 32.5207 18.3693 32.309 18.5073 32.153C18.6454 31.9969 18.8326 31.9093 19.0278 31.9093C19.2231 31.9093 19.4103 31.9969 19.5483 32.153C19.8959 32.5464 20.3086 32.8586 20.763 33.0716C21.2174 33.2845 21.7044 33.3941 22.1963 33.3941C22.6882 33.3941 23.1752 33.2845 23.6296 33.0716C24.084 32.8586 24.4967 32.5464 24.8443 32.153C24.9823 31.9969 25.1696 31.9093 25.3648 31.9093C25.56 31.9093 25.7472 31.9969 25.8853 32.153C26.0233 32.309 26.1009 32.5207 26.1009 32.7413C26.1009 32.962 26.0233 33.1737 25.8853 33.3297C25.4019 33.8792 24.827 34.3149 24.1938 34.6116C23.5606 34.9083 22.8816 35.0601 22.1961 35.0582Z" fill="black"/>
</svg>
