<svg width="81" height="80" viewBox="0 0 81 80" fill="none" xmlns="http://www.w3.org/2000/svg">
<ellipse cx="40.5" cy="40" rx="40.5" ry="40" fill="white"/>
<path d="M51.6808 32.625C50.5535 34.175 49.2094 35.5625 47.7207 36.6375C45.7117 38.0875 43.4281 38.975 41.0144 38.975C38.6008 38.975 36.3027 38.0875 34.3082 36.6375C32.2269 35.1375 30.4492 33.05 29.1051 30.7375C28.9894 30.7875 28.8738 30.8375 28.7437 30.8625C27.3273 31.175 25.7086 29.7875 25.116 27.775C24.5379 25.775 25.2027 23.9 26.6047 23.5875C26.6047 23.5875 26.6047 23.5875 26.6047 23.575C26.6047 23.575 26.6047 23.575 26.6047 23.5875C26.6047 23.5875 32.4148 22.1 36.0281 16.3125C36.0281 16.3 50.2211 19.625 51.6808 32.625Z" fill="#F79420"/>
<path d="M50.7414 32.1499C48.4289 35.2749 44.5844 38.5749 39.9016 37.9624C35.2766 37.3624 31.9957 33.6124 30.0301 30.2499C29.741 29.7624 29.0617 29.7124 28.5414 29.9124C28.1367 30.0749 27.6598 29.7499 27.3707 29.5124C26.7781 29.0374 26.4457 28.3624 26.2145 27.7124C25.9398 26.9249 25.6074 24.8124 26.8937 24.4749C27.5152 24.3124 27.732 23.8374 27.6453 23.3249C27.6453 23.3249 27.6453 23.3249 27.6453 23.3124C26.9516 23.4749 26.2578 23.6499 25.5496 23.8124C25.5496 23.8124 25.5496 23.8124 25.5496 23.8249C25.7086 24.3124 26.3156 24.6249 26.8793 24.4749C28.1656 24.1374 29.3941 23.5499 30.4926 22.9124C33.1953 21.3749 35.3922 19.2249 36.9531 16.7749C36.5484 16.9124 36.1437 17.0624 35.7246 17.1999C35.898 17.2374 36.0859 17.2874 36.2594 17.3499C36.4617 17.4124 36.6496 17.4749 36.852 17.5374C36.9676 17.5749 37.0977 17.6124 37.2133 17.6624C37.2855 17.6874 37.3434 17.7124 37.4156 17.7374C37.7047 17.8374 37.3289 17.6999 37.5023 17.7749C39.1066 18.3624 40.6387 19.1124 42.0695 19.9874C46.3332 22.5874 49.2672 26.4999 50.2934 30.9624C50.4234 31.5124 50.5102 32.0749 50.568 32.6374C50.6258 33.1499 51.016 33.5749 51.652 33.5749C52.2012 33.5749 52.7938 33.1499 52.7359 32.6374C52.1434 27.6124 49.5852 23.0249 45.148 19.7124C42.6766 17.8624 39.757 16.3874 36.6496 15.5124C36.534 15.4749 36.4184 15.4499 36.3027 15.4249C35.8402 15.3124 35.3055 15.4874 35.0742 15.8499C33.6867 18.0374 31.7934 19.9249 29.3941 21.3124C28.657 21.7374 27.891 22.1124 27.0816 22.4249C27.0238 22.4499 26.9805 22.4624 26.9227 22.4874C26.6625 22.5874 27.1395 22.4124 26.9082 22.4999C26.7926 22.5374 26.6914 22.5749 26.5758 22.6124C26.4891 22.6374 26.3879 22.6749 26.3012 22.6999C26.7492 22.9124 27.1973 23.1374 27.6309 23.3499C27.6309 23.3499 27.6309 23.3499 27.6309 23.3374C27.2406 22.1374 25.3473 22.6749 25.5352 23.8374C25.5352 23.8374 25.5352 23.8374 25.5352 23.8499C25.7809 23.4624 26.041 23.0749 26.2867 22.6999C23.5695 23.4249 23.4828 26.4874 24.1621 28.4374C24.8559 30.3999 27.0238 32.6124 29.6109 31.5624C29.1195 31.4499 28.6281 31.3374 28.1223 31.2249C30.3914 35.1124 34.2504 39.1499 39.5113 39.8249C45.1336 40.5499 49.7586 36.9374 52.577 33.1124C53.3719 32.0749 51.493 31.1374 50.7414 32.1499Z" fill="black"/>
<path d="M57.014 44.8624L52.9672 44.1624L49.9031 43.6374L48.6457 42.0499C48.4433 41.7874 48.0676 41.6749 47.7207 41.7499C47.6773 41.7624 47.634 41.7749 47.5761 41.7874L45.5527 47.6499L41 60.8624L36.4328 47.5374L34.4672 41.7874C34.4094 41.7624 34.3515 41.7499 34.2937 41.7374C33.9613 41.6749 33.6144 41.7999 33.4121 42.0374L32.9929 42.5624L32.1258 43.6374L30.984 43.8374L25.0148 44.8749C21.3871 45.4999 18.7855 48.2499 18.7855 51.4499V64.3749H63.2578V51.4374C63.2289 48.2499 60.6273 45.4999 57.014 44.8624ZM30.9695 56.4874C28.9316 56.4874 27.2695 55.0499 27.2695 53.2874C27.2695 51.5249 28.9172 50.0874 30.9695 50.0874C33.0074 50.0874 34.6695 51.5249 34.6695 53.2874C34.6551 55.0499 33.0074 56.4874 30.9695 56.4874Z" fill="#6FCCDD"/>
<path d="M30.9695 55.5501C29.5097 55.5126 28.3968 54.5501 28.3535 53.2876C28.3101 52.0251 29.5675 51.0626 30.9695 51.0251C32.4292 50.9876 33.5421 52.0751 33.5855 53.2876C33.6144 54.5501 32.357 55.5126 30.9695 55.5501C29.5675 55.5876 29.5675 57.4626 30.9695 57.4251C33.6144 57.3626 35.6812 55.5876 35.7535 53.2876C35.8257 51.0001 33.5132 49.2126 30.9695 49.1501C28.3246 49.0876 26.2578 51.0876 26.1855 53.2876C26.1132 55.5751 28.4257 57.3626 30.9695 57.4251C32.3714 57.4501 32.357 55.5751 30.9695 55.5501Z" fill="black"/>
<path d="M57.2887 43.9625C55.9734 43.7375 54.6582 43.5125 53.343 43.275C53.0395 43.225 53.4297 43.25 53.7188 43.5C53.5742 43.375 53.3719 43.2875 53.1695 43.25C52.8371 43.1875 52.5191 43.1375 52.1867 43.075C51.5219 42.9625 50.8426 42.8375 50.1777 42.725C50.3945 42.8625 50.6113 43.0125 50.8281 43.15C50.25 42.425 49.7152 41.4875 48.8625 40.9875C48.1254 40.55 46.7812 40.7625 46.5066 41.55C46.4199 41.8 46.3332 42.05 46.2465 42.3125C45.6684 44 45.0758 45.7 44.4977 47.3875C44.8445 47.1625 45.1914 46.925 45.5383 46.7C45.0469 46.7 44.6277 46.9875 44.4977 47.3875C42.9801 51.7875 41.4625 56.2 39.9449 60.6C40.6387 60.6 41.3324 60.6 42.0406 60.6C40.234 55.3125 38.4273 50.0375 36.6063 44.75C36.2305 43.675 35.8691 42.6 35.4934 41.5125C35.2332 40.7625 34.1348 40.6375 33.3977 40.8875C32.8195 41.0875 32.5016 41.4875 32.1547 41.9C31.8223 42.3 32.4871 41.5 32.0102 42.075C31.9234 42.1875 31.8367 42.2875 31.75 42.4C31.5477 42.65 31.3453 42.8875 31.1574 43.1375C31.3742 43 31.591 42.85 31.8078 42.7125C31.432 42.775 31.0418 42.8375 30.666 42.9125C30.2035 42.9875 29.8711 43.425 29.8711 43.8125C30.1313 43.5125 30.4059 43.2125 30.666 42.9125C28.9172 43.2125 27.1684 43.5125 25.4195 43.8125C22.6879 44.2875 20.3898 45.4125 18.9012 47.5125C17.8316 49.0375 17.6582 50.7125 17.6582 52.4375C17.6582 54.2125 17.6582 55.975 17.6582 57.75C17.6582 59.95 17.6582 62.1375 17.6582 64.3375C17.6582 64.85 18.1496 65.275 18.7422 65.275C24.668 65.275 30.5938 65.275 36.534 65.275C44.7 65.275 52.866 65.275 61.032 65.275C61.7547 65.275 62.4918 65.275 63.2145 65.275C63.807 65.275 64.2984 64.85 64.2984 64.3375C64.2984 61.3 64.2984 58.25 64.2984 55.2125C64.2984 53.9625 64.2984 52.7125 64.2984 51.4625C64.2984 48.7875 62.7086 46.35 60.1215 44.9125C59.2832 44.4625 58.2859 44.15 57.2887 43.9625C55.9301 43.7125 55.352 45.5125 56.7105 45.775C59.818 46.35 62.1449 48.65 62.1449 51.4375C62.1449 52.5125 62.1449 53.6 62.1449 54.675C62.1449 57.8875 62.1449 61.1125 62.1449 64.325C62.1449 64.3375 62.1449 64.35 62.1449 64.3625C62.5062 64.05 62.8676 63.7375 63.2289 63.425C57.3031 63.425 51.3773 63.425 45.4371 63.425C37.2711 63.425 29.1051 63.425 20.9391 63.425C20.2164 63.425 19.4793 63.425 18.7566 63.425C19.118 63.7375 19.4793 64.05 19.8406 64.3625C19.8406 61.325 19.8406 58.275 19.8406 55.2375C19.8406 53.9875 19.8406 52.7375 19.8406 51.4875C19.8406 49.0375 21.6039 46.8125 24.2922 45.9875C25.4195 45.6375 26.677 45.5125 27.8332 45.3125C28.975 45.1125 30.1023 44.925 31.2441 44.725C31.7066 44.65 32.0391 44.2125 32.0391 43.825C31.7789 44.125 31.5043 44.425 31.2441 44.725C31.5766 44.6625 31.8945 44.6125 32.227 44.55C32.7184 44.4625 32.9641 44.175 33.2242 43.8375C33.441 43.5625 33.6578 43.3 33.8891 43.025C33.5133 43.4875 33.9469 42.95 34.0336 42.85C34.1059 42.7625 34.1781 42.6625 34.2504 42.575C34.3949 42.3875 34.1203 42.6625 34.1492 42.6625C33.9035 42.45 33.6434 42.225 33.3977 42.0125C35.3633 47.7625 37.3289 53.5 39.309 59.25C39.5258 59.8625 39.7281 60.475 39.9449 61.0875C40.2484 61.9875 41.7227 61.975 42.0406 61.0875C43.5582 56.6875 45.0758 52.275 46.5934 47.875C46.2465 48.1 45.8996 48.3375 45.5527 48.5625C46.0441 48.5625 46.4633 48.275 46.5934 47.875C47.2727 45.925 47.9375 43.9625 48.6168 42.0125C48.3711 42.225 48.1109 42.45 47.8652 42.6625C47.9086 42.65 47.6051 42.375 47.8508 42.675C48.0098 42.875 48.1687 43.0875 48.3422 43.2875C48.5879 43.6 48.8191 44 49.1371 44.275C49.4695 44.5625 49.9754 44.575 50.409 44.65C51.016 44.75 51.623 44.8625 52.2301 44.9625C52.3746 44.9875 52.5047 45.0125 52.6492 45.0375C53.0105 45.1 51.623 44.55 52.418 44.95C52.5336 45.0125 52.6059 45.0375 52.707 45.05C53.1262 45.125 53.5309 45.1875 53.95 45.2625C54.875 45.425 55.8 45.5875 56.7395 45.7375C58.0836 46.0125 58.6617 44.2 57.2887 43.9625Z" fill="black"/>
<path d="M34.6551 53.2876C34.6551 55.0501 33.0075 56.4876 30.9551 56.4876C28.9172 56.4876 27.2551 55.0501 27.2551 53.2876C27.2551 51.5251 28.9028 50.0876 30.9551 50.0876C33.0075 50.1001 34.6551 51.5251 34.6551 53.2876Z" fill="#998675"/>
<path d="M33.5711 53.2876C33.5277 54.5501 32.4148 55.5126 30.9551 55.5501C29.4953 55.5876 28.3824 54.5001 28.3391 53.2876C28.2957 52.0251 29.5531 51.0626 30.9551 51.0251C32.4148 51.0001 33.5422 52.0751 33.5711 53.2876C33.6144 54.5001 35.7824 54.5001 35.7391 53.2876C35.6668 51.0001 33.6144 49.2126 30.9551 49.1501C28.3101 49.0876 26.2433 51.0876 26.1711 53.2876C26.0988 55.5751 28.4113 57.3626 30.9551 57.4251C33.6 57.4876 35.6668 55.4876 35.7391 53.2876C35.7824 52.0751 33.6144 52.0876 33.5711 53.2876Z" fill="black"/>
<path d="M50.4812 59.1376C49.4406 59.1001 49.3972 58.3126 49.3972 57.6251C49.3972 56.6876 49.3972 55.7501 49.3972 54.8126C49.3972 54.2126 49.3972 53.6126 49.3972 53.0126C49.3972 51.7376 50.3367 50.5751 51.7097 50.1251C53.184 49.6501 54.716 50.0876 55.7277 51.0751C56.407 51.7376 56.5226 52.5876 56.5226 53.4251C56.5226 55.0126 56.5226 56.6001 56.5226 58.1751C56.5226 58.7126 56.0457 59.1001 55.4386 59.1251C54.0511 59.1751 54.0367 61.0501 55.4386 61.0001C57.2019 60.9251 58.6906 59.7626 58.6906 58.1876C58.6906 57.5501 58.6906 56.9126 58.6906 56.2751C58.6906 54.4501 58.9797 52.4376 58.0547 50.7501C56.5082 47.9251 52.0422 47.2626 49.3394 49.1876C48.0097 50.1376 47.2726 51.5251 47.2437 53.0126C47.2293 53.6126 47.2437 54.2126 47.2437 54.8126C47.2437 55.8876 47.2437 56.9501 47.2437 58.0251C47.2437 59.6751 48.5734 60.9376 50.4957 61.0126C51.8832 61.0626 51.8832 59.1876 50.4812 59.1376Z" fill="black"/>
<path d="M51.3919 39.0501C51.8255 36.6751 51.8833 34.5376 51.6665 32.6126C50.2212 19.6126 36.0138 16.3001 36.0138 16.3001C32.4005 22.0876 26.5903 23.5751 26.5903 23.5751C26.5903 23.5751 26.5903 23.5751 26.5903 23.5626C24.3067 15.4376 28.1513 13.2501 28.1513 13.2501C29.2353 7.15006 45.7985 2.75006 54.0079 14.5001C64.5009 29.5126 51.3919 39.0501 51.3919 39.0501Z" fill="#998675"/>
<path d="M52.4469 39.3C53.502 33.3625 52.5481 27.275 48.1977 22.4375C45.6829 19.6375 42.243 17.4625 38.4852 16.0875C37.777 15.825 37.0688 15.575 36.3317 15.4C35.8692 15.2875 35.3344 15.4625 35.1032 15.825C33.7157 18.0125 31.8223 19.9 29.4231 21.2875C28.686 21.7125 27.92 22.0875 27.1106 22.4C27.0528 22.425 27.0094 22.4375 26.9516 22.4625C26.6915 22.5625 27.1684 22.3875 26.9372 22.475C26.8215 22.5125 26.7204 22.55 26.6047 22.5875C26.518 22.6125 26.4169 22.65 26.3301 22.675C26.7782 22.8875 27.2262 23.1125 27.6598 23.325C26.8794 20.9625 26.5903 18.15 27.5153 15.8C27.5442 15.7125 27.5876 15.625 27.6309 15.5375C27.761 15.2625 27.5442 15.6875 27.6743 15.4375C27.7465 15.2875 27.8333 15.15 27.92 15.0125C27.9922 14.8875 28.079 14.775 28.1657 14.65C28.209 14.6 28.2524 14.55 28.2813 14.5C28.4547 14.2875 28.1946 14.5875 28.3102 14.4625C28.4258 14.3375 28.5559 14.2125 28.7005 14.1C28.9751 13.8875 28.6282 14.125 28.7005 14.0875C29.1919 13.8 29.2063 13.4 29.3508 12.95C29.3797 12.875 29.5532 12.475 29.4809 12.6125C29.5676 12.425 29.6833 12.25 29.7989 12.075C30.218 11.4375 30.7239 10.975 31.461 10.4375C32.9208 9.37501 34.9731 8.67501 36.9676 8.31251C42.0985 7.41251 47.3305 9.10001 50.8571 12.3875C53.343 14.7125 55.0774 17.775 56.1036 20.7875C56.9563 23.275 57.2454 25.9375 56.7684 28.5125C56.277 31.1875 55.0051 33.675 53.1985 35.875C52.7071 36.4625 52.1434 37.075 51.4352 37.7125C51.1751 37.95 50.9149 38.175 50.6258 38.3875C49.5563 39.1625 51.1028 40.4875 52.1579 39.7125C54.0946 38.3 55.6411 36.3125 56.7829 34.375C59.4423 29.875 59.7747 24.7375 58.0692 19.9375C56.0891 14.3875 51.9266 9.10001 45.4372 7.03751C40.9278 5.60001 35.4934 5.98751 31.3887 8.17501C29.3797 9.23751 27.5153 10.925 27.1251 13.0125C27.284 12.825 27.4575 12.6375 27.6165 12.45C26.5614 13.0625 25.9255 14.125 25.4774 15.125C24.986 16.225 24.827 17.4375 24.7981 18.6125C24.7403 20.3375 25.0149 22.175 25.5641 23.8375C25.7231 24.325 26.3301 24.6375 26.8938 24.4875C28.1801 24.15 29.4087 23.5625 30.5071 22.925C33.2098 21.3875 35.4067 19.2375 36.9676 16.7875C36.563 16.925 36.1583 17.075 35.7391 17.2125C35.9126 17.25 36.1005 17.3 36.2739 17.3625C36.4762 17.425 36.6641 17.4875 36.8665 17.55C36.9821 17.5875 37.1122 17.625 37.2278 17.675C37.3001 17.7 37.3579 17.725 37.4301 17.75C37.7192 17.85 37.3434 17.7125 37.5169 17.7875C39.1212 18.375 40.6532 19.125 42.084 20C46.3477 22.6 49.2817 26.5125 50.3079 30.975C50.9005 33.55 50.7993 36.25 50.3512 38.825C50.2645 39.325 50.4958 39.825 51.1028 39.975C51.6231 40.075 52.3458 39.8125 52.4469 39.3Z" fill="black"/>
<path d="M52.6637 45.0751C52.4035 44.7751 52.1434 44.475 51.8688 44.175C51.8688 45.7875 51.8688 47.3875 51.8688 49C51.8688 50.2125 54.0367 50.2125 54.0367 49C54.0367 47.3875 54.0367 45.7875 54.0367 44.175C54.0367 43.7375 53.7043 43.4001 53.2418 43.2751C51.9121 42.8751 51.3485 44.6876 52.6637 45.0751Z" fill="black"/>
<path d="M47.7062 36.625V41.75C47.6629 41.7625 47.6195 41.775 47.5617 41.7875L45.5383 47.65C41.4914 48.7625 38.2684 48.15 36.4184 47.5375L34.4527 41.7875C34.3949 41.7625 34.3371 41.75 34.2793 41.7375V36.625C36.2883 38.075 38.5719 38.9625 40.9855 38.9625C43.3992 38.9625 45.7117 38.075 47.7062 36.625Z" fill="#FBB03B"/>
<path d="M46.6223 36.625C46.6223 38.325 46.6223 40.0375 46.6223 41.7375C46.8824 41.4375 47.157 41.1375 47.4172 40.8375C46.6512 41.05 46.5355 41.5125 46.3332 42.0875C46.102 42.7625 45.8707 43.4375 45.6395 44.1125C45.2637 45.2125 44.8879 46.3 44.5121 47.4C44.859 47.175 45.2059 46.9375 45.5527 46.7125C45.1914 46.7125 44.8156 46.8625 44.4688 46.95C43.9629 47.0625 43.457 47.15 42.9367 47.225C42.1273 47.3375 41.2891 47.35 40.4797 47.325C39.1934 47.2875 37.9215 47.025 36.7219 46.6375C36.9676 46.85 37.2277 47.075 37.4734 47.2875C37.1121 46.25 36.7652 45.2125 36.4039 44.175C36.1727 43.5125 35.9559 42.85 35.7246 42.1875C35.5078 41.5625 35.4066 41.0625 34.5684 40.8375C34.8285 41.1375 35.1031 41.4375 35.3633 41.7375C35.3633 40.0375 35.3633 38.3375 35.3633 36.625C34.7418 36.85 34.1348 37.0625 33.5133 37.2875C35.6668 38.8125 38.1672 39.8625 40.9855 39.9C43.7895 39.9375 46.3477 38.7875 48.4578 37.2875C48.9203 36.9625 48.848 36.3 48.4578 35.9625C48.0098 35.575 47.3738 35.6375 46.9258 35.9625C45.2348 37.1625 43.1969 38 40.9855 38.025C38.7887 38.05 36.7074 37.1375 35.0453 35.9625C34.3516 35.4625 33.1953 35.75 33.1953 36.625C33.1953 38.325 33.1953 40.025 33.1953 41.7375C33.1953 42.1625 33.5277 42.5125 33.9902 42.6375C34.048 42.65 34.1059 42.675 34.1637 42.6875C33.918 42.475 33.6578 42.25 33.4121 42.0375C34.0336 43.8375 34.6406 45.625 35.2621 47.425C35.4211 47.875 35.5656 48.25 36.1437 48.4375C36.9387 48.7 37.7625 48.8875 38.6008 49.0125C39.6559 49.175 40.7254 49.225 41.7805 49.1875C42.4453 49.1625 43.0957 49.0875 43.7461 48.9875C44.093 48.9375 44.4254 48.875 44.7723 48.8C44.9457 48.7625 45.4805 48.575 45.5527 48.575C46.0441 48.575 46.4633 48.2875 46.5934 47.8875C47.2727 45.9375 47.9375 43.975 48.6168 42.025C48.3711 42.2375 48.1109 42.4625 47.8652 42.675C47.9086 42.6625 47.952 42.65 48.0098 42.6375C48.4723 42.5125 48.8047 42.1625 48.8047 41.7375C48.8047 40.0375 48.8047 38.325 48.8047 36.625C48.7902 35.425 46.6223 35.425 46.6223 36.625Z" fill="black"/>
<path d="M29.8855 43.8376C29.8855 45.9251 29.8855 48.0126 29.8855 50.1001C29.8855 51.3126 32.0535 51.3126 32.0535 50.1001C32.0535 48.0126 32.0535 45.9251 32.0535 43.8376C32.0535 42.6251 29.8855 42.6251 29.8855 43.8376Z" fill="black"/>
</svg>
