<svg width="45" height="40" viewBox="0 0 45 40" fill="none" xmlns="http://www.w3.org/2000/svg">
<g clip-path="url(#clip0_56_137)">
<path d="M22.5 38.1818C33.7967 38.1818 42.9545 30.0415 42.9545 19.9999C42.9545 9.95839 33.7967 1.81812 22.5 1.81812C11.2032 1.81812 2.04541 9.95839 2.04541 19.9999C2.04541 30.0415 11.2032 38.1818 22.5 38.1818Z" fill="#E7EFFF"/>
<path d="M14.7272 17.0909C14.7272 16.8901 14.5441 16.7273 14.3181 16.7273C14.0922 16.7273 13.9091 16.8901 13.9091 17.0909V19.2727C13.9091 19.4736 14.0922 19.6364 14.3181 19.6364C14.5441 19.6364 14.7272 19.4736 14.7272 19.2727V17.0909Z" fill="#4E6AFF"/>
<path d="M4.90912 17.0909C4.90912 16.8901 4.72597 16.7273 4.50003 16.7273C4.2741 16.7273 4.09094 16.8901 4.09094 17.0909V19.2727C4.09094 19.4736 4.2741 19.6364 4.50003 19.6364C4.72597 19.6364 4.90912 19.4736 4.90912 19.2727V17.0909Z" fill="#4E6AFF"/>
<path d="M30.2728 19.2728C30.2728 19.4737 30.4559 19.6365 30.6819 19.6365C30.9078 19.6365 31.0909 19.4737 31.0909 19.2728V17.091C31.0909 16.8902 30.9078 16.7274 30.6819 16.7274C30.4559 16.7274 30.2728 16.8902 30.2728 17.091V19.2728Z" fill="#4E6AFF"/>
<path d="M40.0909 19.2728C40.0909 19.4737 40.274 19.6365 40.5 19.6365C40.7259 19.6365 40.9091 19.4737 40.9091 19.2728V17.091C40.9091 16.8902 40.7259 16.7274 40.5 16.7274C40.274 16.7274 40.0909 16.8902 40.0909 17.091V19.2728Z" fill="#4E6AFF"/>
<path d="M13.2345 6.62441C10.1668 9.93545 7.83633 13.7353 6.36748 17.8211L5.85816 19.2364C5.71335 19.6497 5.68803 20.0888 5.78453 20.5131C5.92591 21.1321 6.32113 21.6822 6.89338 22.0566C7.46563 22.4311 8.17403 22.603 8.88093 22.539C9.58782 22.475 10.2427 22.1797 10.7183 21.7105C11.194 21.2413 11.4564 20.6316 11.4545 20C11.4545 19.9859 11.4545 19.9724 11.4521 19.9582H11.4545V18.3219C11.4545 13.9077 12.4274 9.53628 14.3182 5.45459L13.2345 6.62441ZM40.9639 5.81459C37.4222 9.41247 34.7796 13.6374 33.2108 18.2102L32.8582 19.2364C32.7134 19.6497 32.688 20.0888 32.7845 20.5131C32.9259 21.1321 33.3211 21.6822 33.8934 22.0566C34.4656 22.4311 35.174 22.603 35.8809 22.539C36.5878 22.475 37.2427 22.1797 37.7183 21.7105C38.194 21.2413 38.4564 20.6316 38.4545 20C38.4545 19.9859 38.4545 19.9724 38.4521 19.9582H38.4545V18.3219C38.4545 13.9077 39.4274 9.53628 41.3182 5.45459L40.9639 5.81459Z" fill="#323FD4"/>
<path d="M2.86363 2.54534C3.54143 2.54534 4.0909 2.05693 4.0909 1.45443C4.0909 0.851942 3.54143 0.363525 2.86363 0.363525C2.18582 0.363525 1.63635 0.851942 1.63635 1.45443C1.63635 2.05693 2.18582 2.54534 2.86363 2.54534Z" fill="#00C99F"/>
<path d="M43.3636 4.3637C44.0414 4.3637 44.5909 3.87529 44.5909 3.27279C44.5909 2.6703 44.0414 2.18188 43.3636 2.18188C42.6858 2.18188 42.1364 2.6703 42.1364 3.27279C42.1364 3.87529 42.6858 4.3637 43.3636 4.3637Z" fill="#FFA100"/>
<path d="M41.3182 39.6364C41.996 39.6364 42.5455 39.148 42.5455 38.5455C42.5455 37.943 41.996 37.4546 41.3182 37.4546C40.6404 37.4546 40.0909 37.943 40.0909 38.5455C40.0909 39.148 40.6404 39.6364 41.3182 39.6364Z" fill="#00C99F"/>
<path d="M1.63633 36.3637C2.31413 36.3637 2.8636 35.8753 2.8636 35.2728C2.8636 34.6703 2.31413 34.1819 1.63633 34.1819C0.958526 34.1819 0.409058 34.6703 0.409058 35.2728C0.409058 35.8753 0.958526 36.3637 1.63633 36.3637Z" fill="#FF4D69"/>
<path d="M42.9545 20.0001C42.9578 21.5967 42.7212 23.1865 42.2509 24.7274C42.2018 24.8983 42.1486 25.0655 42.0914 25.2328C41.9768 25.5783 41.85 25.9165 41.7109 26.251C41.67 26.3492 41.6291 26.4474 41.5841 26.5455C41.535 26.6692 41.4818 26.7892 41.4245 26.9092C39.8824 30.2439 37.26 33.096 33.8904 35.1031C30.5208 37.1102 26.5562 38.1819 22.5 38.1819C18.4438 38.1819 14.4791 37.1102 11.1096 35.1031C7.74002 33.096 5.11761 30.2439 3.57544 26.9092C3.51817 26.7892 3.46499 26.6692 3.4159 26.5455C3.3709 26.4474 3.32999 26.3492 3.28908 26.251C3.14999 25.9165 3.02317 25.5783 2.90863 25.2328C2.85135 25.0655 2.79817 24.8983 2.74908 24.7274C2.27881 23.1865 2.04218 21.5967 2.04544 20.0001C2.04544 19.5165 2.0659 19.0365 2.1109 18.5601C2.22506 18.5497 2.33978 18.5449 2.45453 18.5455C2.88662 18.5453 3.31649 18.6005 3.7309 18.7092C4.76624 18.9855 5.8701 18.9855 6.90544 18.7092C7.73865 18.491 8.62496 18.491 9.45817 18.7092C10.4935 18.9855 11.5974 18.9855 12.6327 18.7092C13.0471 18.6005 13.477 18.5453 13.9091 18.5455C16.1673 18.5455 18 20.011 18 21.8183C18.0005 22.7777 17.7748 23.7266 17.3373 24.6037C17.3168 24.6437 17.2964 24.6874 17.28 24.7274C17.0042 25.3162 16.8624 25.9477 16.8627 26.5855C16.862 26.6936 16.8675 26.8016 16.8791 26.9092C16.917 27.4579 17.0609 27.9967 17.3045 28.5019L17.3659 28.6292C17.7969 29.5219 18.5131 30.2827 19.4256 30.8172C20.3382 31.3518 21.4071 31.6367 22.5 31.6367C23.5929 31.6367 24.6618 31.3518 25.5744 30.8172C26.4869 30.2827 27.203 29.5219 27.6341 28.6292L27.6954 28.5019C27.9798 27.9054 28.1284 27.2647 28.1326 26.6168C28.1368 25.969 27.9966 25.3268 27.72 24.7274C27.7036 24.6874 27.6832 24.6437 27.6627 24.6037C27.2252 23.7266 26.9994 22.7777 27 21.8183C27.0044 21.3793 27.1135 20.9463 27.3201 20.5476C27.5267 20.1489 27.8262 19.7937 28.1986 19.5055C28.9966 18.8795 30.0266 18.5376 31.0909 18.5455C31.523 18.5453 31.9529 18.6005 32.3673 18.7092C33.4026 18.9855 34.5065 18.9855 35.5418 18.7092C36.375 18.491 37.2613 18.491 38.0945 18.7092C39.1299 18.9855 40.2337 18.9855 41.2691 18.7092C41.6835 18.6005 42.1134 18.5453 42.5454 18.5455C42.6602 18.5449 42.7749 18.5497 42.8891 18.5601C42.9341 19.0365 42.9545 19.5165 42.9545 20.0001Z" fill="#A5BCED"/>
<path d="M26.5144 26.2059L26.3164 24.8495C25.1564 16.9096 26.3802 8.83821 29.8636 1.45459C23.4849 7.83342 19.5616 15.8545 18.664 24.3517L18.4443 26.4295H18.45C18.3087 27.3591 18.5775 28.3013 19.2 29.0587C19.8226 29.8162 20.7506 30.3302 21.7899 30.4932C22.8292 30.6562 23.8991 30.4556 24.7757 29.9332C25.6522 29.4109 26.2675 28.6074 26.4927 27.691C26.6179 27.203 26.6251 26.6969 26.514 26.2062L26.5144 26.2059Z" fill="#4E6AFF"/>
<path d="M16.8628 26.5855C16.8621 26.6935 16.8676 26.8015 16.8791 26.9091H3.57551C3.51824 26.7891 3.46505 26.6691 3.41596 26.5455C3.37096 26.4473 3.33005 26.3491 3.28915 26.2509C3.15005 25.9164 3.02324 25.5782 2.90869 25.2327C2.85142 25.0655 2.79824 24.8982 2.74915 24.7273H17.2801C17.0042 25.3161 16.8624 25.9477 16.8628 26.5855ZM42.251 24.7273C42.2019 24.8982 42.1487 25.0655 42.0914 25.2327C41.9769 25.5782 41.8501 25.9164 41.711 26.2509C41.6701 26.3491 41.6291 26.4473 41.5841 26.5455C41.5351 26.6691 41.4819 26.7891 41.4246 26.9091H28.121C28.1824 26.1639 28.045 25.4164 27.7201 24.7273H42.251Z" fill="#7F96D1"/>
<path d="M40.5941 28.4763C38.8581 31.4052 36.2554 33.8571 33.0666 35.5676C29.8779 37.278 26.2243 38.182 22.5 38.182C18.7757 38.182 15.122 37.278 11.9333 35.5676C8.7446 33.8571 6.14185 31.4052 4.40588 28.4763C4.70043 28.5127 5.00316 28.5636 5.31816 28.6218C11.0454 29.7127 9.81816 30.8036 14.3182 30.8036C17.6154 30.8036 18.4091 34.0763 22.5 34.0763C26.5909 34.0763 27.3845 30.8036 30.6818 30.8036C35.1818 30.8036 33.9545 29.7127 39.6818 28.6218C39.9968 28.5636 40.2995 28.5127 40.5941 28.4763Z" fill="#4E6AFF"/>
<path d="M14.3182 34.1818C14.7701 34.1818 15.1364 33.8562 15.1364 33.4546C15.1364 33.0529 14.7701 32.7273 14.3182 32.7273C13.8663 32.7273 13.5 33.0529 13.5 33.4546C13.5 33.8562 13.8663 34.1818 14.3182 34.1818Z" fill="#8FA2FF"/>
<path d="M22.4999 37.091C22.9518 37.091 23.3181 36.7654 23.3181 36.3637C23.3181 35.9621 22.9518 35.6365 22.4999 35.6365C22.0481 35.6365 21.6818 35.9621 21.6818 36.3637C21.6818 36.7654 22.0481 37.091 22.4999 37.091Z" fill="#8FA2FF"/>
<path d="M30.6818 34.1818C31.1337 34.1818 31.5 33.8562 31.5 33.4546C31.5 33.0529 31.1337 32.7273 30.6818 32.7273C30.23 32.7273 29.8636 33.0529 29.8636 33.4546C29.8636 33.8562 30.23 34.1818 30.6818 34.1818Z" fill="#8FA2FF"/>
</g>
<defs>
<clipPath id="clip0_56_137">
<rect width="45" height="40" fill="white"/>
</clipPath>
</defs>
</svg>
