<svg width="62" height="62" viewBox="0 0 62 62" fill="none" xmlns="http://www.w3.org/2000/svg">
<circle cx="31" cy="31" r="31" fill="#FBFBFD"/>
<path d="M32.8871 33H28.1129C23.841 33.0043 19.7454 34.4941 16.7247 37.1427C13.704 39.7912 12.0049 43.3823 12 47.1279V49.2209C12.0018 50.747 12.694 52.2101 13.9247 53.2892C15.1554 54.3683 16.824 54.9752 18.5645 54.9767H42.4355C44.176 54.9752 45.8446 54.3683 47.0753 53.2892C48.306 52.2101 48.9982 50.747 49 49.2209V47.1279C48.9951 43.3823 47.296 39.7912 44.2753 37.1427C41.2546 34.4941 37.159 33.0043 32.8871 33Z" fill="#4285F4"/>
<path d="M30.5323 30.9767C37.4536 30.9767 43.0645 26.0571 43.0645 19.9884C43.0645 13.9197 37.4536 9 30.5323 9C23.6109 9 18 13.9197 18 19.9884C18 26.0571 23.6109 30.9767 30.5323 30.9767Z" fill="#AFCBF9"/>
</svg>
