<svg width="34" height="36" viewBox="0 0 34 36" fill="none" xmlns="http://www.w3.org/2000/svg">
<path d="M0.635986 0.565674V4.92545C0.636014 9.11347 1.44993 13.2703 3.04217 17.2144C3.55408 18.482 3.81571 19.8181 3.81562 21.1642V21.6367C3.81577 23.6805 3.21297 25.6889 2.06682 27.4634C1.54294 28.2746 1.26908 29.1933 1.27266 30.1276C1.27624 31.0618 1.55713 31.9789 2.08723 32.7869C2.61732 33.595 3.37802 34.2657 4.29321 34.732C5.20839 35.1983 6.24596 35.4437 7.30209 35.4439H7.52864C8.8335 35.4441 10.1032 35.0697 11.1471 34.3771C11.4282 34.1906 11.7625 34.077 12.1125 34.0491C12.4625 34.0211 12.8144 34.0799 13.1288 34.2189L14.8243 34.9685C15.5305 35.2813 16.3095 35.4441 17.0993 35.4439H30.2948C30.9258 35.4445 31.5425 35.2777 32.0652 34.965C32.588 34.6524 32.9927 34.2083 33.2272 33.6901C33.3745 33.3645 33.4065 33.007 33.3188 32.665C33.231 32.3229 33.0278 32.0126 32.7361 31.7751C32.4444 31.5376 32.0779 31.3843 31.6853 31.3353C31.2927 31.2864 30.8926 31.3442 30.538 31.5011C30.15 31.6724 29.7167 31.7476 29.2842 31.7186C28.8518 31.6897 28.4362 31.5576 28.0818 31.3365L21.3306 27.1209C19.9405 26.2527 18.839 25.0706 18.1408 23.6978C17.4426 22.325 17.1732 20.8117 17.3609 19.3155L19.7138 0.565674" fill="#E0C3AA"/>
<path d="M30.2963 33.7562H17.1008C16.311 33.7565 15.532 33.5937 14.8258 33.2809L13.1303 32.5313C12.8159 32.3923 12.464 32.3335 12.114 32.3614C11.764 32.3894 11.4297 32.503 11.1485 32.6895C10.1043 33.3824 8.83394 33.7568 7.52854 33.7562H7.30199C5.86891 33.7554 4.48301 33.3032 3.3926 32.4806C2.30219 31.658 1.57853 30.5188 1.3513 29.2671C1.21358 30.0289 1.26429 30.8081 1.49993 31.5509C1.73558 32.2937 2.15055 32.9824 2.71624 33.5696C3.28192 34.1568 3.98486 34.6284 4.77655 34.952C5.56825 35.2756 6.42987 35.4434 7.30199 35.4439H7.52854C8.8334 35.4441 10.1031 35.0698 11.147 34.3772C11.4281 34.1906 11.7624 34.077 12.1124 34.0491C12.4624 34.0212 12.8143 34.08 13.1287 34.2189L14.8242 34.9685C15.5304 35.2814 16.3094 35.4441 17.0992 35.4439H30.2947C30.9257 35.4445 31.5424 35.2777 32.0651 34.9651C32.5879 34.6525 32.9926 34.2084 33.2271 33.6901C33.3331 33.4514 33.3784 33.195 33.3598 32.9391C33.3413 32.6832 33.2593 32.434 33.1198 32.2092C32.8583 32.6738 32.4556 33.0647 31.9568 33.338C31.458 33.6113 30.883 33.7561 30.2963 33.7562Z" fill="#D0A37F"/>
<path d="M19.2909 4.50346C19.2011 4.50394 19.1123 4.48761 19.0302 4.45556C18.9481 4.4235 18.8746 4.37643 18.8145 4.31745C18.7545 4.25847 18.7092 4.18891 18.6817 4.11335C18.6542 4.03779 18.6451 3.95793 18.6549 3.87902L19.0786 0.503716C19.0878 0.429887 19.1134 0.358382 19.1538 0.293282C19.1942 0.228183 19.2487 0.170764 19.3142 0.124306C19.4465 0.0304775 19.6156 -0.0130145 19.7841 0.00339724C19.8676 0.0115235 19.9484 0.034112 20.022 0.0698728C20.0956 0.105634 20.1605 0.153867 20.213 0.211818C20.2655 0.269769 20.3046 0.336304 20.3281 0.407623C20.3515 0.478942 20.3589 0.553649 20.3497 0.627478L19.926 4.00279C19.9087 4.14089 19.8343 4.26846 19.717 4.3609C19.5997 4.45335 19.4479 4.50413 19.2909 4.50346ZM30.2964 36.0063H17.1009C16.2125 36.0054 15.3364 35.8224 14.5413 35.4719L12.8458 34.7223C12.6369 34.6284 12.4023 34.5884 12.169 34.6069C11.9356 34.6254 11.7128 34.7017 11.5262 34.8271C10.3714 35.5897 8.96972 36.0032 7.52862 36.0063H7.30207C6.13442 36.0065 4.98722 35.7353 3.97531 35.2199C2.9634 34.7045 2.1223 33.963 1.53621 33.0697C0.950124 32.1763 0.639617 31.1624 0.635778 30.1295C0.63194 29.0966 0.934904 28.0809 1.51434 27.1841C1.82662 26.7004 2.09764 26.1966 2.32515 25.6772C2.38607 25.5381 2.50698 25.426 2.66127 25.3658C2.81557 25.3055 2.9906 25.3019 3.14788 25.3558C3.30515 25.4097 3.43178 25.5167 3.49991 25.6532C3.56803 25.7897 3.57208 25.9445 3.51115 26.0836C3.26055 26.6554 2.96216 27.2099 2.61847 27.7425C2.14984 28.4681 1.90489 29.29 1.90813 30.1257C1.91137 30.9615 2.16268 31.7818 2.63692 32.5047C3.11116 33.2275 3.79169 33.8275 4.6104 34.2446C5.42912 34.6616 6.3573 34.8812 7.30207 34.8812H7.52862C8.69545 34.8791 9.83047 34.5445 10.7655 33.927C11.1404 33.6763 11.5872 33.5237 12.0553 33.4864C12.5233 33.4491 12.9938 33.5286 13.4133 33.716L15.1081 34.4656C15.7266 34.7383 16.4082 34.8806 17.0993 34.8812H30.2948C30.7986 34.8826 31.2911 34.7497 31.7083 34.4999C32.1254 34.25 32.4478 33.8948 32.6334 33.4805C32.7328 33.2608 32.7544 33.0195 32.6952 32.7887C32.636 32.5579 32.4988 32.3485 32.3019 32.1883C32.105 32.0281 31.8577 31.9246 31.5928 31.8917C31.3278 31.8587 31.0578 31.8978 30.8186 32.0038C30.3281 32.2212 29.78 32.3168 29.2329 32.2803C28.6858 32.2437 28.1602 32.0765 27.7121 31.7963L20.961 27.5772C19.4776 26.6508 18.3022 25.3895 17.5571 23.9247C16.8121 22.4599 16.5247 20.8451 16.7249 19.2486L18.3751 6.12923C18.3828 6.05477 18.4072 5.98241 18.4469 5.91639C18.4866 5.85036 18.5408 5.792 18.6063 5.74472C18.6717 5.69743 18.7472 5.66216 18.8283 5.64098C18.9093 5.6198 18.9944 5.61312 19.0784 5.62135C19.1624 5.62958 19.2437 5.65254 19.3176 5.68889C19.3914 5.72524 19.4564 5.77426 19.5086 5.83307C19.5608 5.89188 19.5992 5.95931 19.6216 6.03141C19.644 6.10351 19.6499 6.17884 19.639 6.25299L17.9912 19.3759C17.8159 20.7723 18.0671 22.1847 18.7186 23.466C19.3701 24.7472 20.3981 25.8506 21.6955 26.6609L28.4474 30.8766C28.7076 31.0394 29.0129 31.1367 29.3307 31.158C29.6485 31.1793 29.9669 31.1239 30.2519 30.9975C30.7216 30.7902 31.2514 30.714 31.7712 30.779C32.291 30.844 32.7762 31.0471 33.1626 31.3614C33.549 31.6757 33.8184 32.0864 33.9351 32.5392C34.0519 32.9919 34.0104 33.4653 33.8162 33.8968C33.5371 34.5206 33.052 35.0555 32.4241 35.4318C31.7963 35.8081 31.0548 36.0083 30.2964 36.0063Z" fill="black"/>
<path d="M3.62399 24.1929C3.53122 24.193 3.43953 24.1753 3.35535 24.1408C3.27118 24.1063 3.19655 24.0559 3.13671 23.9932C3.07688 23.9305 3.03328 23.8569 3.00897 23.7777C2.98466 23.6985 2.98024 23.6156 2.99601 23.5347C3.19395 22.5186 3.17964 21.8231 3.17964 21.1642C3.18018 19.8826 2.93118 18.6105 2.44355 17.4036C0.824311 13.3994 -0.00231392 9.17819 4.86482e-06 4.9255V0.565725C4.86482e-06 0.416527 0.0670042 0.27344 0.186264 0.167941C0.305523 0.0624425 0.467273 0.00317383 0.635931 0.00317383C0.80459 0.00317383 0.96634 0.0624425 1.0856 0.167941C1.20486 0.27344 1.27186 0.416527 1.27186 0.565725V4.9255C1.26987 9.04919 2.0712 13.1423 3.64068 17.0253C4.17807 18.3534 4.45236 19.7536 4.45149 21.1642C4.45149 21.949 4.45785 22.6564 4.24958 23.726C4.22413 23.8565 4.14743 23.9749 4.03299 24.0603C3.91856 24.1457 3.77372 24.1927 3.62399 24.1929ZM10.5262 23.5713L9.68914 23.2007C6.94591 21.9877 6.9475 18.5224 9.68914 17.3094L10.5262 16.9388C10.6771 16.872 10.8519 16.861 11.012 16.9082C11.1721 16.9555 11.3044 17.057 11.3799 17.1905C11.4554 17.3241 11.4678 17.4786 11.4144 17.6203C11.3611 17.7619 11.2463 17.879 11.0953 17.9457L10.2543 18.3156C8.44908 19.1144 8.44908 21.3956 10.2543 22.1944L11.0922 22.5643C11.1669 22.5974 11.2335 22.6431 11.2883 22.699C11.343 22.7548 11.3848 22.8196 11.4113 22.8898C11.4377 22.9599 11.4482 23.0339 11.4423 23.1077C11.4364 23.1814 11.4141 23.2534 11.3767 23.3195C11.3394 23.3856 11.2876 23.4446 11.2245 23.493C11.1614 23.5415 11.0881 23.5784 11.0088 23.6018C10.9295 23.6252 10.8458 23.6345 10.7625 23.6293C10.6791 23.624 10.5977 23.6043 10.523 23.5713H10.5262Z" fill="black"/>
</svg>
