<svg width="35" height="35" viewBox="0 0 35 35" fill="none" xmlns="http://www.w3.org/2000/svg">
<path d="M24.8438 7.95312C24.8438 3.90378 21.5493 0.609375 17.5 0.609375C13.4507 0.609375 10.1562 3.90378 10.1562 7.95312C10.1562 12.0025 13.4507 15.2969 17.5 15.2969C21.5493 15.2969 24.8438 12.0025 24.8438 7.95312ZM17.5 14.5625C13.856 14.5625 10.8906 11.5978 10.8906 7.95312C10.8906 4.30842 13.856 1.34375 17.5 1.34375C21.144 1.34375 24.1094 4.30842 24.1094 7.95312C24.1094 11.5978 21.144 14.5625 17.5 14.5625Z" fill="#010101"/>
<path d="M18.9688 6.11131C19.1714 6.11131 19.3359 5.94681 19.3359 5.74412C19.3359 5.54144 19.1714 5.37694 18.9688 5.37694H16.7656H16.0312C15.8286 5.37694 15.6641 5.54144 15.6641 5.74412C15.6641 5.94681 15.8286 6.11131 16.0312 6.11131H16.7656C17.2481 6.11131 17.6542 6.42489 17.8033 6.85744H16.0312C15.8286 6.85744 15.6641 7.02194 15.6641 7.22462C15.6641 7.42731 15.8286 7.59181 16.0312 7.59181H17.796C17.641 8.01261 17.2393 8.31444 16.7656 8.31444H16.0312C15.8286 8.31444 15.6641 8.47894 15.6641 8.68163C15.6641 8.68383 15.6648 8.6853 15.6655 8.6875C15.6641 8.7837 15.6986 8.87991 15.772 8.95261L17.9751 11.1557C18.0471 11.2277 18.1411 11.263 18.2351 11.263C18.3291 11.263 18.4231 11.227 18.4951 11.1557C18.6383 11.0125 18.6383 10.7797 18.4951 10.6365L16.8941 9.03559C17.7181 8.97758 18.3959 8.38127 18.5619 7.59108H18.9688C19.1714 7.59108 19.3359 7.42658 19.3359 7.22389C19.3359 7.0212 19.1714 6.8567 18.9688 6.8567H18.5656C18.5105 6.57911 18.3893 6.32795 18.2248 6.11058H18.9688V6.11131ZM15.6641 28.5156H14.5625V20.3068C14.5625 19.2831 14.0771 18.3019 13.2634 17.6799L7.85105 13.5476C7.38766 13.1863 6.81117 13.0247 6.22441 13.0982C5.76616 13.154 5.34977 13.3515 5.01562 13.6555V7.21875C5.01562 6.00409 4.02716 5.01562 2.8125 5.01562C1.59784 5.01562 0.609375 6.00409 0.609375 7.21875V16.7656V20.0703C0.609375 21.5648 1.32319 22.9924 2.51875 23.8891L6.04375 26.5335C6.31987 26.7399 6.48438 27.0689 6.48438 27.4141V28.5156H5.38281C5.18013 28.5156 5.01562 28.6801 5.01562 28.8828V34.0234C5.01562 34.2261 5.18013 34.3906 5.38281 34.3906H15.6641C15.8667 34.3906 16.0312 34.2261 16.0312 34.0234V28.8828C16.0312 28.6801 15.8667 28.5156 15.6641 28.5156ZM6.48438 25.9453L2.95937 23.3008C1.94741 22.543 1.34375 21.3349 1.34375 20.0703V16.7656V7.21875C1.34375 6.40873 2.00248 5.75 2.8125 5.75C3.62252 5.75 4.28125 6.40873 4.28125 7.21875V14.9297C4.28125 14.973 4.29227 15.0134 4.30622 15.0516C4.28859 15.2168 4.28492 15.385 4.30548 15.5539C4.37745 16.1377 4.67267 16.6584 5.13753 17.0219L9.7237 20.5682C9.99395 20.7768 10.1504 21.0933 10.1518 21.434L10.154 21.8769C10.1548 22.0788 10.3193 22.2426 10.5212 22.2426C10.7239 22.2624 10.8892 22.0766 10.8884 21.8739L10.8862 21.4304C10.8833 20.862 10.6233 20.3354 10.1731 19.9873L5.5877 16.4418C5.27853 16.2009 5.08172 15.8528 5.03398 15.4636C4.98625 15.0751 5.09273 14.6895 5.33434 14.3796C5.57595 14.0705 5.92405 13.8744 6.314 13.8259C6.70175 13.7797 7.0895 13.8839 7.40234 14.1285L12.8176 18.263C13.4507 18.747 13.8281 19.5107 13.8281 20.3068V28.5156H7.21875V27.4141C7.21875 26.839 6.94409 26.2897 6.48438 25.9453ZM15.2969 33.6562H5.75V29.25H6.85156H14.1953H15.2969V33.6562Z" fill="#010101"/>
<path d="M12.3594 31.8203C12.3594 32.4276 12.8536 32.9219 13.4609 32.9219C14.0683 32.9219 14.5625 32.4276 14.5625 31.8203C14.5625 31.213 14.0683 30.7188 13.4609 30.7188C12.8536 30.7188 12.3594 31.213 12.3594 31.8203ZM13.8281 31.8203C13.8281 32.0223 13.6636 32.1875 13.4609 32.1875C13.2582 32.1875 13.0938 32.0223 13.0938 31.8203C13.0938 31.6184 13.2582 31.4531 13.4609 31.4531C13.6636 31.4531 13.8281 31.6184 13.8281 31.8203ZM32.1875 5.01562C30.9728 5.01562 29.9844 6.00409 29.9844 7.21875V13.6555C29.6502 13.3515 29.2338 13.1547 28.7756 13.0982C28.1918 13.0255 27.6131 13.1855 27.1526 13.5454L21.7366 17.6799C20.9229 18.3019 20.4375 19.2838 20.4375 20.3068V28.5156H19.3359C19.1333 28.5156 18.9688 28.6801 18.9688 28.8828V34.0234C18.9688 34.2261 19.1333 34.3906 19.3359 34.3906H29.6172C29.8199 34.3906 29.9844 34.2261 29.9844 34.0234V28.8828C29.9844 28.6801 29.8199 28.5156 29.6172 28.5156H28.5156V27.4141C28.5156 27.0689 28.6801 26.7399 28.9562 26.5335L32.4813 23.8891C33.6768 22.9924 34.3906 21.5648 34.3906 20.0703V16.7656V7.21875C34.3906 6.00409 33.4022 5.01562 32.1875 5.01562ZM29.25 33.6562H19.7031V29.25H20.8047H28.1484H29.25V33.6562ZM33.6562 20.0703C33.6562 21.3349 33.0526 22.543 32.0406 23.3008L28.5156 25.9453C28.0559 26.2897 27.7812 26.839 27.7812 27.4141V28.5156H21.1719V20.3068C21.1719 19.5107 21.5493 18.747 22.1816 18.2638L27.5999 14.127C27.909 13.8854 28.2953 13.7811 28.6853 13.8267C29.076 13.8744 29.424 14.0712 29.6649 14.3804C29.9065 14.6903 30.013 15.0751 29.9653 15.4643C29.9175 15.8535 29.7207 16.2016 29.413 16.4418L24.8261 19.9881C24.3767 20.3362 24.1167 20.862 24.113 21.4318L24.1108 21.8747C24.1101 22.0766 24.2731 22.2426 24.4766 22.2433H24.478C24.68 22.2433 24.8445 22.0796 24.8452 21.8776L24.8474 21.4355C24.8489 21.094 25.0053 20.7775 25.2756 20.569L29.8639 17.0219C30.3281 16.6591 30.6233 16.1385 30.6945 15.5546C30.7151 15.385 30.7114 15.2176 30.6938 15.0523C30.7077 15.0134 30.7188 14.973 30.7188 14.9297V7.21875C30.7188 6.40873 31.3775 5.75 32.1875 5.75C32.9975 5.75 33.6562 6.40873 33.6562 7.21875V16.7656V20.0703Z" fill="#010101"/>
</svg>
