<svg width="133" height="133" viewBox="0 0 133 133" fill="none" xmlns="http://www.w3.org/2000/svg">
<circle cx="66.5" cy="66.5" r="66.5" fill="#C6C6F1"/>
<circle cx="66" cy="67" r="55" fill="white"/>
<path d="M24.8717 103.959C25.1727 104.043 25.4925 103.997 25.7617 103.829C26.0309 103.661 26.2279 103.386 26.31 103.063C28.7307 93.334 38.5685 90.8125 44.4486 89.3037C45.9222 88.9265 47.0855 88.6278 47.8423 88.2759C54.5403 85.1444 56.7236 80.1066 57.3769 76.4308C57.4158 76.2121 57.4004 75.9863 57.3323 75.776C57.2642 75.5658 57.1458 75.3786 56.9891 75.2334C53.5015 71.9905 50.5591 67.1223 48.7024 61.5225C48.6501 61.3619 48.5677 61.2146 48.4604 61.0896C46.0044 58.2138 44.5943 55.1734 44.5943 52.7507C44.5943 51.3356 45.0902 50.3863 46.2066 49.6698C46.3738 49.5622 46.5135 49.4114 46.6132 49.2311C46.7129 49.0508 46.7694 48.8466 46.7776 48.637C47.297 35.7413 55.8235 25.5898 66.2817 25.524L66.5332 25.5417C77.0431 25.6986 85.5155 36.0678 85.8187 49.1458C85.8229 49.3246 85.8624 49.5003 85.9345 49.6614C86.0066 49.8224 86.1097 49.9651 86.237 50.08C86.9726 50.7508 87.3157 51.6014 87.3157 52.7558C87.3157 54.7836 86.3122 57.2771 84.4932 59.7732C84.4065 59.8933 84.3397 60.0287 84.2957 60.1732C82.4156 66.5932 79.0408 72.2614 75.0408 75.7296C74.8751 75.8737 74.7487 76.0635 74.675 76.2788C74.6014 76.4941 74.5832 76.7268 74.6225 76.9523C75.2758 80.6256 77.4591 85.6608 84.1571 88.7974C84.9491 89.167 86.1782 89.4556 87.7364 89.8176C93.5578 91.1745 103.299 93.4504 105.689 103.063C105.729 103.223 105.799 103.374 105.893 103.506C105.987 103.637 106.104 103.748 106.238 103.831C106.372 103.914 106.519 103.968 106.672 103.989C106.825 104.011 106.981 104 107.13 103.956C107.279 103.913 107.419 103.839 107.541 103.737C107.663 103.636 107.766 103.51 107.843 103.365C107.92 103.221 107.97 103.062 107.99 102.897C108.01 102.733 108 102.565 107.96 102.404C105.198 91.2986 94.1618 88.724 88.2346 87.3418C86.8598 87.0203 85.673 86.7443 85.0948 86.4709C80.7235 84.4254 78.0302 81.3091 77.0784 77.1928C81.1371 73.4385 84.5331 67.6464 86.4744 61.1504C88.5355 58.2644 89.6682 55.2924 89.6682 52.7533C89.6682 51.0597 89.1606 49.6471 88.1547 48.5433C87.5954 34.3565 78.1971 23.1848 66.5332 23.0051L66.183 23C54.7306 23.0658 45.2923 33.9439 44.4674 47.8851C42.9962 49.0496 42.2489 50.6825 42.2489 52.7558C42.2489 55.7506 43.8211 59.3328 46.5732 62.6187C48.4745 68.2463 51.4216 73.1904 54.9304 76.6511C53.9833 80.7825 51.2876 83.909 46.9069 85.957C46.3405 86.2228 45.2124 86.514 43.9057 86.8481C37.934 88.3772 26.8224 91.2252 24.0398 102.41C23.9594 102.734 24.0019 103.079 24.1579 103.37C24.3139 103.66 24.5707 103.872 24.8717 103.959Z" fill="black"/>
</svg>
