<svg width="43" height="39" viewBox="0 0 43 39" fill="none" xmlns="http://www.w3.org/2000/svg">
<path d="M31.0998 17.7322C30.2956 17.469 29.4604 17.4038 28.6266 17.536C28.3323 17.5811 28.0703 17.5896 27.8466 17.5598C27.8419 17.5592 27.8365 17.5586 27.8325 17.5586C27.3353 17.5025 26.914 17.2825 26.568 16.9077C26.5673 16.9071 26.5673 16.9059 26.5667 16.9053C26.5653 16.9041 26.564 16.9035 26.5626 16.9023C26.3369 16.6555 26.1427 16.3441 25.9841 15.9626C25.9042 15.7694 26.0305 15.5677 26.1877 15.4562C26.5673 15.1917 26.9113 14.8024 27.2103 14.296C27.6632 13.5214 27.9023 12.6184 27.9023 11.6836V8.13518C27.9023 6.77262 27.4166 5.67636 26.4605 4.87746C24.6975 3.40582 21.9381 3.49784 21.5 3.52221C21.064 3.49723 18.3026 3.40582 16.5396 4.87746C15.5828 5.67636 15.0977 6.77201 15.0977 8.13518V11.6836C15.0977 12.6184 15.3369 13.5215 15.7911 14.2984C16.0888 14.803 16.4328 15.1924 16.8083 15.4538C16.9696 15.5677 17.0966 15.7694 17.0166 15.962C16.4986 17.2045 15.609 17.7359 14.3775 17.5372C13.5383 17.4032 12.7045 17.4696 11.9003 17.7328C9.82151 18.4147 8.42468 20.2806 8.42468 22.3769V30.3103C8.42468 31.4901 9.17382 33.1409 12.7448 34.3097C15.0655 35.0696 18.1749 35.4882 21.5 35.4882C28.0085 35.4882 34.5754 33.8874 34.5754 30.3103V22.3757C34.5754 20.28 33.1786 18.4141 31.0998 17.7322ZM28.8833 22.8705C29.5034 22.8705 30.0073 23.3275 30.0073 23.89C30.0073 24.4524 29.5034 24.9088 28.8833 24.9088C28.2638 24.9088 27.7599 24.4518 27.7599 23.89C27.7599 23.3281 28.2638 22.8705 28.8833 22.8705ZM16.9777 13.7244C16.6269 13.1254 16.4415 12.4191 16.4415 11.683V8.13457C16.4415 7.11448 16.77 6.34362 17.4459 5.77751C18.8864 4.57095 21.4234 4.73975 21.4456 4.74036C21.4826 4.7434 21.5189 4.74279 21.5558 4.74036C21.582 4.73914 24.1002 4.56364 25.5501 5.77386C26.2287 6.34057 26.5586 7.11265 26.5586 8.13457V11.683C26.5586 12.4191 26.3738 13.1247 26.0238 13.7219C25.8168 14.0729 25.5965 14.3307 25.3653 14.4916C24.7056 14.9584 24.4489 15.7219 24.7271 16.3916C24.8467 16.6804 24.9918 16.9394 25.1503 17.1795L21.4806 19.9449L17.7187 17.355C17.9304 17.0704 18.1205 16.7554 18.2724 16.3916C18.5505 15.7219 18.2939 14.9584 17.6294 14.4885C17.4029 14.3307 17.1826 14.0729 16.9777 13.7244ZM33.2316 30.3103C33.2316 32.8819 27.1875 34.2694 21.5 34.2694C15.8126 34.2694 9.76843 32.8819 9.76843 30.3103V22.3757C9.76843 20.7913 10.8085 19.3861 12.3572 18.8779C12.7428 18.7511 13.1386 18.6877 13.5383 18.6877C13.7399 18.6877 13.9421 18.7042 14.1444 18.7365C14.1712 18.7407 14.1968 18.7395 14.2236 18.7432C13.846 19.461 13.6458 20.2459 13.6458 21.0631V21.0893C12.4237 21.3635 11.5113 22.3598 11.5113 23.5518V25.5688C11.5113 25.9052 11.8116 26.1782 12.1832 26.1782C12.5547 26.1782 12.855 25.9052 12.855 25.5688V23.5518C12.855 22.8211 13.5108 22.2264 14.3164 22.2264C15.1226 22.2264 15.7784 22.8211 15.7784 23.5518V25.5688C15.7784 25.9052 16.0787 26.1782 16.4502 26.1782C16.8218 26.1782 17.1221 25.9052 17.1221 25.5688V23.5518C17.1221 22.3604 16.211 21.3653 14.9896 21.0899V21.0631C14.9896 20.1886 15.2899 19.3635 15.8395 18.6573C16.1788 18.5665 16.4946 18.4281 16.7848 18.2417L21.0936 21.2081C21.2138 21.291 21.3569 21.3324 21.4994 21.3324C21.6526 21.3324 21.8044 21.2855 21.9287 21.1917L26.0157 18.1113C26.4249 18.4184 26.8939 18.6231 27.4092 18.72C27.9252 19.4196 28.2094 20.2215 28.2094 21.0631V21.7468C27.1781 22.0149 26.4162 22.8687 26.4162 23.8894C26.4162 25.1233 27.5227 26.127 28.8833 26.127C30.2438 26.127 31.3511 25.1233 31.3511 23.8894C31.3511 22.8674 30.5872 22.0125 29.5531 21.7456V21.0631C29.5531 20.2441 29.3496 19.4525 28.9659 18.7255C29.5337 18.6518 30.0974 18.6987 30.6429 18.8779C32.1916 19.3855 33.2316 20.7913 33.2316 22.3757V30.3103Z" fill="black"/>
<path d="M25.9055 26.645H23.8442V24.7754C23.8442 24.439 23.5439 24.166 23.1723 24.166H19.8284C19.4569 24.166 19.1565 24.439 19.1565 24.7754V26.645H17.0952C16.7237 26.645 16.4233 26.918 16.4233 27.2543V30.2872C16.4233 30.6236 16.7237 30.8966 17.0952 30.8966H19.1565V32.76C19.1565 33.0964 19.4569 33.3694 19.8284 33.3694H23.1723C23.5439 33.3694 23.8442 33.0964 23.8442 32.76V30.8966H25.9055C26.2771 30.8966 26.5774 30.6236 26.5774 30.2872V27.2543C26.5774 26.918 26.2764 26.645 25.9055 26.645ZM25.2336 29.6778H23.1723C22.8008 29.6778 22.5004 29.9508 22.5004 30.2872V32.1507H20.5003V30.2872C20.5003 29.9508 20.1999 29.6778 19.8284 29.6778H17.7671V27.8637H19.8284C20.1999 27.8637 20.5003 27.5907 20.5003 27.2543V25.3848H22.5004V27.2543C22.5004 27.5907 22.8008 27.8637 23.1723 27.8637H25.2336V29.6778Z" fill="black"/>
</svg>
