<svg width="31" height="32" viewBox="0 0 31 32" fill="none" xmlns="http://www.w3.org/2000/svg">
<path d="M25.8333 10.6667L18.0833 3.65334C17.3729 2.9974 16.4532 2.63477 15.5 2.63477C14.5468 2.63477 13.6271 2.9974 12.9167 3.65334L5.16667 10.6667C4.75639 11.0454 4.429 11.5101 4.20628 12.0297C3.98356 12.5493 3.87063 13.1119 3.875 13.68V25.3333C3.875 26.3942 4.28326 27.4116 5.00996 28.1618C5.73667 28.9119 6.72229 29.3333 7.75 29.3333H23.25C24.2777 29.3333 25.2633 28.9119 25.99 28.1618C26.7167 27.4116 27.125 26.3942 27.125 25.3333V13.6667C27.1275 13.1008 27.0137 12.5407 26.7911 12.0236C26.5684 11.5064 26.242 11.044 25.8333 10.6667ZM18.0833 26.6667H12.9167V20C12.9167 19.6464 13.0528 19.3072 13.295 19.0572C13.5372 18.8072 13.8658 18.6667 14.2083 18.6667H16.7917C17.1342 18.6667 17.4628 18.8072 17.705 19.0572C17.9472 19.3072 18.0833 19.6464 18.0833 20V26.6667ZM24.5417 25.3333C24.5417 25.687 24.4056 26.0261 24.1633 26.2762C23.9211 26.5262 23.5926 26.6667 23.25 26.6667H20.6667V20C20.6667 18.9391 20.2584 17.9217 19.5317 17.1716C18.805 16.4214 17.8194 16 16.7917 16H14.2083C13.1806 16 12.195 16.4214 11.4683 17.1716C10.7416 17.9217 10.3333 18.9391 10.3333 20V26.6667H7.75C7.40743 26.6667 7.07889 26.5262 6.83665 26.2762C6.59442 26.0261 6.45833 25.687 6.45833 25.3333V13.6667C6.45857 13.4774 6.49785 13.2903 6.57357 13.1178C6.6493 12.9454 6.75972 12.7916 6.8975 12.6667L14.6475 5.66668C14.8832 5.45292 15.1862 5.33503 15.5 5.33503C15.8138 5.33503 16.1168 5.45292 16.3525 5.66668L24.1025 12.6667C24.2403 12.7916 24.3507 12.9454 24.4264 13.1178C24.5021 13.2903 24.5414 13.4774 24.5417 13.6667V25.3333Z" fill="black"/>
</svg>
