<svg width="31" height="32" viewBox="0 0 31 32" fill="none" xmlns="http://www.w3.org/2000/svg">
<path d="M30.677 8.39992H23.5729V0.333252H7.42704V8.39992H0.322876V27.9333H4.32704V31.6666H26.6729V27.9333H30.677V8.39992ZM8.71871 1.66659H22.2812V26.5999H19.5687V21.2666H11.4312V26.5999H8.71871V1.66659ZM18.277 26.5999H12.6583V22.5999H18.277V26.5999ZM1.61454 26.5999V9.73325H7.42704V26.5999H1.61454ZM25.3812 30.3333H5.61871V27.9333H25.4458V30.3333H25.3812ZM29.3854 26.5999H23.5729V9.73325H29.3854V26.5999Z" fill="black"/>
<path d="M14.8542 9.73345H16.1458V7.80011H18.0187V6.46678H16.1458V4.53345H14.8542V6.46678H12.9812V7.80011H14.8542V9.73345ZM3.875 12.3334H5.16667V14.4001H3.875V12.3334ZM3.875 17.1334H5.16667V19.2001H3.875V17.1334ZM3.875 21.9334H5.16667V24.0001H3.875V21.9334ZM25.8333 12.3334H27.125V14.4001H25.8333V12.3334ZM25.8333 17.1334H27.125V19.2001H25.8333V17.1334ZM25.8333 21.9334H27.125V24.0001H25.8333V21.9334ZM11.4313 12.3334H12.7229V14.4001H11.4313V12.3334ZM11.4313 17.1334H12.7229V19.2001H11.4313V17.1334ZM14.8542 12.3334H16.1458V14.4001H14.8542V12.3334ZM14.8542 17.1334H16.1458V19.2001H14.8542V17.1334ZM18.2771 12.3334H19.5687V14.4001H18.2771V12.3334ZM18.2771 17.1334H19.5687V19.2001H18.2771V17.1334Z" fill="black"/>
</svg>
