<svg width="31" height="32" viewBox="0 0 31 32" fill="none" xmlns="http://www.w3.org/2000/svg">
<g clip-path="url(#clip0_117_361)">
<path fill-rule="evenodd" clip-rule="evenodd" d="M25.6728 28.8H5.32903C4.23473 28.8 3.42562 27.6848 3.83947 26.6592C5.75527 21.9168 10.2565 19.2 15.5001 19.2C20.7453 19.2 25.2465 21.9168 27.1623 26.6592C27.5762 27.6848 26.7671 28.8 25.6728 28.8ZM9.17147 9.59998C9.17147 6.07038 12.0111 3.19998 15.5001 3.19998C18.9907 3.19998 21.8288 6.07038 21.8288 9.59998C21.8288 13.1296 18.9907 16 15.5001 16C12.0111 16 9.17147 13.1296 9.17147 9.59998ZM30.9319 28.2176C29.7818 22.8432 26.1827 18.8767 21.4475 17.0767C23.9569 15.0335 25.4201 11.7295 24.8823 8.11189C24.2592 3.91509 20.8058 0.556763 16.6394 0.067163C10.8858 -0.609637 6.00637 3.91838 6.00637 9.59998C6.00637 12.624 7.39208 15.3183 9.55433 17.0767C4.81598 18.8767 1.21997 22.8432 0.0683211 28.2176C-0.350179 30.1712 1.20757 32 3.18382 32H27.8164C29.7942 32 31.3504 30.1712 30.9319 28.2176Z" fill="black"/>
</g>
<defs>
<clipPath id="clip0_117_361">
<rect width="31" height="32" fill="white"/>
</clipPath>
</defs>
</svg>
