<svg width="56" height="41" viewBox="0 0 56 41" fill="none" xmlns="http://www.w3.org/2000/svg">
<path d="M50.3265 16.4155C52.8015 16.4155 54.8125 18.5718 54.8125 21.2437C54.8125 23.9155 52.75 26.0812 50.3265 26.0812" fill="#CB58D0"/>
<path d="M50.3265 16.4155C52.8015 16.4155 54.8125 18.5718 54.8125 21.2437C54.8125 23.9155 52.75 26.0812 50.3265 26.0812" stroke="black" stroke-width="2" stroke-linecap="round" stroke-linejoin="round"/>
<path d="M5.67344 26.0812C3.25 26.0812 1.1875 23.9155 1.1875 21.2437C1.1875 18.5718 3.25 16.4155 5.67344 16.4155" fill="#CB58D0"/>
<path d="M5.67344 26.0812C3.25 26.0812 1.1875 23.9155 1.1875 21.2437C1.1875 18.5718 3.25 16.4155 5.67344 16.4155" stroke="black" stroke-width="2" stroke-linecap="round" stroke-linejoin="round"/>
<path d="M28 39.8531C40.53 39.8531 50.6875 31.236 50.6875 20.6062C50.6875 9.97649 40.53 1.35938 28 1.35938C15.47 1.35938 5.3125 9.97649 5.3125 20.6062C5.3125 31.236 15.47 39.8531 28 39.8531Z" fill="#FBC2FE"/>
<path d="M34.5691 39.0375C43.4711 39.0375 50.6876 30.7856 50.6876 20.6063C50.6876 10.427 43.4711 2.17505 34.5691 2.17505C25.6672 2.17505 18.4507 10.427 18.4507 20.6063C18.4507 30.7856 25.6672 39.0375 34.5691 39.0375Z" fill="#FCD9FE"/>
<path d="M28 39.8531C40.53 39.8531 50.6875 31.236 50.6875 20.6062C50.6875 9.97649 40.53 1.35938 28 1.35938C15.47 1.35938 5.3125 9.97649 5.3125 20.6062C5.3125 31.236 15.47 39.8531 28 39.8531Z" stroke="black" stroke-width="2" stroke-linecap="round" stroke-linejoin="round"/>
<path d="M16.3262 19.6406C16.2692 18.9376 16.5201 18.2426 17.0243 17.707C17.5284 17.1715 18.2449 16.8387 19.0178 16.7812C19.7906 16.8387 20.5071 17.1715 21.0113 17.707C21.5154 18.2426 21.7663 18.9376 21.7093 19.6406M33.3934 19.6406C33.3364 18.9376 33.5873 18.2426 34.0914 17.707C34.5956 17.1715 35.3121 16.8387 36.0849 16.7812C36.8578 16.8387 37.5743 17.1715 38.0784 17.707C38.5826 18.2426 38.8335 18.9376 38.7765 19.6406M32.4859 27.375C32.4859 28.4566 32.0133 29.4939 31.172 30.2587C30.3307 31.0235 29.1897 31.4531 27.9999 31.4531C26.8102 31.4531 25.6692 31.0235 24.8279 30.2587C23.9866 29.4939 23.514 28.4566 23.514 27.375" stroke="#231F23" stroke-width="2" stroke-linecap="round" stroke-linejoin="round"/>
<path d="M28 1.3501C28 1.3501 20.874 4.49072 23.514 9.70322M31.3 1.55635C31.3 1.55635 27.6803 5.5126 30.1347 7.43447" stroke="black" stroke-width="2" stroke-linecap="round" stroke-linejoin="round"/>
</svg>
