<svg width="53" height="50" viewBox="0 0 53 50" fill="none" xmlns="http://www.w3.org/2000/svg">
<path d="M26.5 49.6153C40.9104 49.6153 52.5923 38.5946 52.5923 24.9999C52.5923 11.4052 40.9104 0.384521 26.5 0.384521C12.0896 0.384521 0.407715 11.4052 0.407715 24.9999C0.407715 38.5946 12.0896 49.6153 26.5 49.6153Z" fill="#4A749B"/>
<path d="M28.9951 3.78376C28.9951 3.99722 28.8116 4.17029 28.5858 4.17029H26.0083C25.8998 4.16999 25.7957 4.12917 25.719 4.05674C25.6422 3.98432 25.5989 3.88618 25.5986 3.78376C25.5986 3.57106 25.7829 3.39722 26.0083 3.39722H28.5858C28.812 3.39722 28.9951 3.57029 28.9951 3.78376ZM30.1647 3.78376C30.1647 3.57029 30.3482 3.39722 30.5745 3.39722H35.7346C35.8433 3.39722 35.9475 3.43794 36.0244 3.51043C36.1012 3.58292 36.1444 3.68124 36.1444 3.78376C36.1444 3.88627 36.1012 3.98459 36.0244 4.05708C35.9475 4.12957 35.8433 4.17029 35.7346 4.17029H30.5745C30.3482 4.17029 30.1647 3.99722 30.1647 3.78376ZM12.1105 7.57914C12.2192 7.57914 12.3234 7.53841 12.4002 7.46592C12.4771 7.39344 12.5202 7.29512 12.5202 7.1926C12.5202 7.09008 12.4771 6.99177 12.4002 6.91928C12.3234 6.84679 12.2192 6.80606 12.1105 6.80606H8.92642C8.63353 7.0576 8.34671 7.31536 8.06619 7.57914H12.1105ZM15.8193 7.1926C15.8193 7.40606 15.6358 7.57914 15.4095 7.57914H13.7282C13.5028 7.57914 13.3185 7.40491 13.3185 7.1926C13.3185 6.98029 13.5028 6.80568 13.7282 6.80568H15.4095C15.6358 6.80568 15.8193 6.97875 15.8193 7.1926ZM4.88089 34.2195H2.30835C2.42006 34.4799 2.53666 34.7372 2.65693 34.9926H4.88048C4.98915 34.9926 5.09336 34.9519 5.1702 34.8794C5.24704 34.8069 5.29021 34.7086 5.29021 34.6061C5.29021 34.5035 5.24704 34.4052 5.1702 34.3327C5.09336 34.2602 4.98915 34.2195 4.88048 34.2195H4.88089ZM6.72325 34.9926H6.33757C6.22891 34.9926 6.12469 34.9519 6.04785 34.8794C5.97101 34.8069 5.92784 34.7086 5.92784 34.6061C5.92784 34.5035 5.97101 34.4052 6.04785 34.3327C6.12469 34.2602 6.22891 34.2195 6.33757 34.2195H6.72325C6.83192 34.2195 6.93613 34.2602 7.01297 34.3327C7.08981 34.4052 7.13298 34.5035 7.13298 34.6061C7.13298 34.7086 7.08981 34.8069 7.01297 34.8794C6.93613 34.9519 6.83192 34.9926 6.72325 34.9926ZM33.6892 42.8149C33.6892 42.6014 33.8727 42.4284 34.0994 42.4284H40.6253C40.8508 42.4284 41.035 42.6022 41.035 42.8149C41.035 43.0276 40.8508 43.2014 40.6253 43.2014H34.0994C33.8731 43.2014 33.6892 43.0284 33.6892 42.8149ZM33.0532 42.8149C33.0532 43.0284 32.8698 43.2014 32.6431 43.2014H30.6829C30.5743 43.2014 30.47 43.1607 30.3932 43.0882C30.3164 43.0157 30.2732 42.9174 30.2732 42.8149C30.2732 42.7124 30.3164 42.6141 30.3932 42.5416C30.47 42.4691 30.5743 42.4284 30.6829 42.4284H32.6431C32.8694 42.4284 33.0532 42.6014 33.0532 42.8149ZM52.5299 26.6718C52.5136 26.9334 52.4892 27.1911 52.4647 27.4449H48.4367C48.328 27.4449 48.2238 27.4042 48.147 27.3317C48.0701 27.2592 48.027 27.1609 48.027 27.0584C48.027 26.9559 48.0701 26.8575 48.147 26.785C48.2238 26.7126 48.328 26.6718 48.4367 26.6718H52.5299ZM47.3889 27.0595C47.3889 27.273 47.2055 27.4461 46.9796 27.4461H45.0194C44.9108 27.4461 44.8065 27.4053 44.7297 27.3328C44.6529 27.2604 44.6097 27.162 44.6097 27.0595C44.6097 26.957 44.6529 26.8587 44.7297 26.7862C44.8065 26.7137 44.9108 26.673 45.0194 26.673H46.9796C47.2059 26.673 47.3889 26.8461 47.3889 27.0595ZM15.6949 15.4549C15.6949 15.2414 15.8784 15.0684 16.1047 15.0684H22.6306C22.856 15.0684 23.0403 15.2422 23.0403 15.4549C23.0403 15.6676 22.856 15.8414 22.6306 15.8414H16.1047C15.878 15.8414 15.6945 15.6684 15.6945 15.4549H15.6949ZM15.0581 15.4549C15.0581 15.6684 14.8747 15.8414 14.6484 15.8414H12.6882C12.6344 15.8414 12.5811 15.8314 12.5314 15.812C12.4817 15.7926 12.4365 15.7641 12.3985 15.7282C12.3604 15.6923 12.3302 15.6497 12.3097 15.6028C12.2891 15.5559 12.2785 15.5057 12.2785 15.4549C12.2785 15.4041 12.2891 15.3539 12.3097 15.307C12.3302 15.2601 12.3604 15.2175 12.3985 15.1816C12.4365 15.1457 12.4817 15.1172 12.5314 15.0978C12.5811 15.0784 12.6344 15.0684 12.6882 15.0684H14.6484C14.8747 15.0684 15.0581 15.2414 15.0581 15.4549ZM16.4683 47.7257H18.3119C18.4206 47.7257 18.5248 47.685 18.6016 47.6125C18.6785 47.54 18.7216 47.4417 18.7216 47.3391C18.7216 47.2366 18.6785 47.1383 18.6016 47.0658C18.5248 46.9933 18.4206 46.9526 18.3119 46.9526H14.7038C15.2815 47.231 15.8701 47.4889 16.4683 47.7257ZM23.6506 46.9526H19.9998C19.8911 46.9526 19.7869 46.9933 19.71 47.0658C19.6332 47.1383 19.59 47.2366 19.59 47.3391C19.59 47.4417 19.6332 47.54 19.71 47.6125C19.7869 47.685 19.8911 47.7257 19.9998 47.7257H23.6506C23.8761 47.7257 24.0608 47.5514 24.0608 47.3388C24.0608 47.1264 23.8761 46.9522 23.6506 46.9522V46.9526ZM47.7587 15.4549H42.5606C42.452 15.4549 42.3477 15.4956 42.2709 15.5681C42.1941 15.6406 42.1509 15.7389 42.1509 15.8414C42.1509 15.944 42.1941 16.0423 42.2709 16.1148C42.3477 16.1873 42.452 16.228 42.5606 16.228H47.7587C47.9842 16.228 48.1684 16.0541 48.1684 15.8414C48.1684 15.6288 47.9842 15.4549 47.7587 15.4549ZM41.0856 15.8414C41.0856 15.628 40.9021 15.4549 40.6759 15.4549H40.2356C40.1269 15.4549 40.0227 15.4956 39.9458 15.5681C39.869 15.6406 39.8258 15.7389 39.8258 15.8414C39.8258 15.944 39.869 16.0423 39.9458 16.1148C40.0227 16.1873 40.1269 16.228 40.2356 16.228H40.6759C40.9021 16.228 41.0856 16.0549 41.0856 15.8414ZM5.69953 24.2076H10.8976C10.9514 24.2076 11.0047 24.2176 11.0544 24.237C11.1041 24.2564 11.1493 24.2849 11.1873 24.3208C11.2254 24.3567 11.2556 24.3993 11.2762 24.4462C11.2967 24.4931 11.3073 24.5434 11.3073 24.5941C11.3073 24.6449 11.2967 24.6952 11.2762 24.7421C11.2556 24.789 11.2254 24.8316 11.1873 24.8675C11.1493 24.9034 11.1041 24.9318 11.0544 24.9513C11.0047 24.9707 10.9514 24.9807 10.8976 24.9807H5.69953C5.59097 24.9804 5.48694 24.9396 5.41017 24.8671C5.3334 24.7947 5.29013 24.6966 5.2898 24.5941C5.2898 24.3814 5.47408 24.2076 5.69953 24.2076ZM12.3726 24.5941C12.3726 24.3807 12.5561 24.2076 12.7824 24.2076H13.2227C13.3313 24.2076 13.4356 24.2483 13.5124 24.3208C13.5892 24.3933 13.6324 24.4916 13.6324 24.5941C13.6324 24.6967 13.5892 24.795 13.5124 24.8675C13.4356 24.94 13.3313 24.9807 13.2227 24.9807H12.7824C12.5561 24.9807 12.3726 24.8076 12.3726 24.5941Z" fill="#386384"/>
<path d="M44.0903 20.5578C44.4103 24.7101 42.8766 28.5255 40.1879 31.3413C37.1905 34.4797 35.5402 38.5582 35.5402 42.7824C35.5402 43.1766 35.2018 43.4959 34.7839 43.4959H21.7993C21.5987 43.4959 21.4064 43.4207 21.2645 43.2869C21.1227 43.1531 21.043 42.9716 21.043 42.7824V39.5016C21.0431 39.2712 20.995 39.0431 20.9016 38.8302C20.8082 38.6173 20.6712 38.4239 20.4986 38.261C20.3259 38.098 20.1209 37.9688 19.8952 37.8806C19.6696 37.7924 19.4278 37.747 19.1836 37.747H15.8201C15.1752 37.747 14.5568 37.5054 14.1008 37.0752C13.6448 36.645 13.3886 36.0615 13.3886 35.4532V31.0109L11.5732 30.6697C11.4126 30.6395 11.2606 30.5775 11.1274 30.4877C10.9941 30.3979 10.8827 30.2823 10.8004 30.1488C10.7181 30.0152 10.6669 29.8666 10.6501 29.713C10.6333 29.5593 10.6514 29.404 10.7032 29.2574L13.1032 22.4524C13.2712 21.9766 13.3805 21.4832 13.4045 20.982C13.7959 12.7582 21.4552 6.31626 30.4644 7.22741C37.8746 7.97703 43.5497 13.5459 44.0903 20.5578Z" fill="#386384"/>
<path d="M43.2174 19.7346C43.5375 23.8865 42.0041 27.7019 39.315 30.5177C36.3176 33.6561 34.6673 37.7346 34.6673 41.9592C34.6673 42.3531 34.3289 42.6727 33.911 42.6727H20.926C20.8267 42.6727 20.7284 42.6542 20.6366 42.6184C20.5449 42.5825 20.4615 42.5299 20.3913 42.4637C20.321 42.3974 20.2653 42.3188 20.2273 42.2322C20.1893 42.1457 20.1698 42.0529 20.1698 41.9592V38.6781C20.1699 38.4477 20.1219 38.2195 20.0285 38.0066C19.9351 37.7937 19.7982 37.6002 19.6256 37.4373C19.4529 37.2743 19.2479 37.145 19.0223 37.0568C18.7967 36.9685 18.5549 36.9231 18.3107 36.923H14.9468C14.3019 36.923 13.6835 36.6814 13.2275 36.2512C12.7715 35.821 12.5153 35.2376 12.5153 34.6292V30.1869L10.6999 29.8457C10.5393 29.8156 10.3873 29.7535 10.2541 29.6637C10.1208 29.5739 10.0094 29.4584 9.92709 29.3248C9.8448 29.1912 9.79358 29.0427 9.77682 28.889C9.76005 28.7353 9.77814 28.58 9.82986 28.4334L12.2299 21.6284C12.3979 21.1527 12.5072 20.6592 12.5312 20.158C12.9226 11.9342 20.5819 5.49228 29.5911 6.40344C37.0017 7.15344 42.6768 12.7219 43.2174 19.7342V19.7346Z" fill="#FFCEAB"/>
<path d="M29.4231 8.16241C29.4125 8.1623 29.4019 8.16165 29.3913 8.16048C28.6892 8.08954 27.9825 8.06859 27.277 8.09779C27.1213 8.11202 26.9754 7.98548 26.9684 7.83164C26.9649 7.75786 26.9925 7.68576 27.0452 7.63118C27.098 7.57659 27.1715 7.54397 27.2497 7.54048C27.9854 7.5099 28.7224 7.53175 29.4545 7.60587C29.5292 7.61415 29.5978 7.64896 29.6463 7.70323C29.6948 7.7575 29.7196 7.82716 29.7156 7.89803C29.7116 7.96891 29.6791 8.03568 29.6248 8.08479C29.5705 8.1339 29.4984 8.16165 29.4231 8.16241ZM18.9214 11.1955C18.8609 11.1956 18.8018 11.1781 18.7521 11.1455C18.7025 11.1129 18.6646 11.0667 18.6437 11.0131C18.6227 10.9596 18.6197 10.9012 18.635 10.846C18.6504 10.7908 18.6833 10.7413 18.7294 10.7043C20.4382 9.331 22.4695 8.36189 24.6548 7.87741C24.7294 7.86476 24.8064 7.87962 24.8697 7.91894C24.9331 7.95825 24.9781 8.01902 24.9953 8.08869C25.0126 8.15837 25.0008 8.23163 24.9625 8.29337C24.9242 8.35511 24.8622 8.40061 24.7893 8.42048C22.6961 8.88461 20.7504 9.81313 19.1138 11.1289C19.0602 11.1721 18.9919 11.1957 18.9214 11.1955ZM14.5016 17.9282C14.4567 17.9283 14.4123 17.9187 14.3719 17.9002C14.3314 17.8816 14.296 17.8547 14.2683 17.8213C14.2406 17.7879 14.2213 17.749 14.2119 17.7076C14.2026 17.6661 14.2033 17.6232 14.2142 17.582C14.7398 15.6001 15.7424 13.7592 17.1443 12.202C17.1694 12.1741 17.2002 12.1512 17.2347 12.1345C17.2693 12.1178 17.307 12.1077 17.3457 12.1047C17.3844 12.1018 17.4234 12.106 17.4603 12.1173C17.4973 12.1285 17.5315 12.1466 17.5611 12.1703C17.5907 12.194 17.615 12.223 17.6327 12.2556C17.6504 12.2883 17.6612 12.3238 17.6643 12.3604C17.6674 12.3969 17.6629 12.4336 17.6509 12.4685C17.639 12.5033 17.6199 12.5357 17.5948 12.5636C16.2521 14.055 15.2918 15.8183 14.7886 17.7166C14.7727 17.777 14.7358 17.8306 14.6839 17.8689C14.632 17.9073 14.5675 17.9281 14.5016 17.9282ZM13.7266 22.3778C13.6797 22.3779 13.6335 22.3674 13.5918 22.3473C13.55 22.3272 13.5139 22.298 13.4865 22.2622C13.4591 22.2264 13.441 22.1849 13.434 22.1412C13.4269 22.0975 13.4309 22.0528 13.4457 22.0109C13.6609 21.4005 13.7841 20.7955 13.8114 20.212C13.8128 20.1754 13.822 20.1394 13.8383 20.1061C13.8547 20.0728 13.8778 20.0429 13.9065 20.0182C13.9352 19.9934 13.9688 19.9743 14.0054 19.9619C14.0419 19.9494 14.0808 19.944 14.1196 19.9459C14.2827 19.9528 14.409 20.0828 14.4017 20.237C14.3724 20.8716 14.2394 21.5274 14.0071 22.187C13.9875 22.2426 13.9498 22.2909 13.8995 22.3251C13.8491 22.3594 13.7886 22.3778 13.7266 22.3778ZM12.1969 26.7139C12.15 26.714 12.1038 26.7036 12.0621 26.6835C12.0204 26.6634 11.9843 26.6342 11.9568 26.5984C11.9294 26.5625 11.9114 26.521 11.9043 26.4773C11.8972 26.4336 11.9012 26.389 11.916 26.347L12.8508 23.697C12.8756 23.6268 12.9289 23.5687 12.9991 23.5356C13.0692 23.5024 13.1505 23.4969 13.2249 23.5203C13.2994 23.5437 13.3609 23.594 13.396 23.6601C13.4312 23.7263 13.437 23.8029 13.4122 23.8732L12.4778 26.5232C12.4582 26.5788 12.4205 26.6272 12.3701 26.6614C12.3196 26.6957 12.259 26.714 12.1969 26.7139Z" fill="#FFDCC5"/>
<path d="M39.3154 30.5173C36.3204 33.6583 34.6644 37.7344 34.6669 41.9592C34.6669 42.1561 34.5837 42.335 34.4459 42.465C34.3028 42.5977 34.1105 42.6724 33.9098 42.6734H20.9256C20.7249 42.6733 20.5324 42.598 20.3905 42.4641C20.2487 42.3302 20.1689 42.1486 20.1689 41.9592V41.2561H32.4115C32.6203 41.2561 32.8058 41.178 32.9436 41.0477C33.0842 40.9126 33.1635 40.7312 33.1645 40.5419C33.1621 36.3172 34.8181 32.2412 37.8131 29.1004C40.5022 26.2842 42.0359 22.4715 41.7167 18.3169C41.4639 15.0696 40.1116 12.1273 37.9863 9.83228C40.9637 12.2611 42.9112 15.7688 43.2186 19.7342C43.5383 23.8854 42.0045 27.7015 39.3154 30.5173Z" fill="#F4BD98"/>
<path d="M37.9831 18.9184C37.9927 19.1739 37.9477 19.4285 37.8507 19.6671C37.7537 19.9058 37.6068 20.1235 37.4186 20.3074C37.2304 20.4913 37.0049 20.6375 36.7555 20.7373C36.5061 20.8371 36.2379 20.8885 35.967 20.8884C35.597 20.8878 35.2341 20.7916 34.9179 20.6102C34.6017 20.4288 34.3441 20.1692 34.1732 19.8596C34.1546 19.824 34.1259 19.794 34.0904 19.7727C34.0549 19.7515 34.0138 19.7399 33.9718 19.7392C33.9115 19.7393 33.8537 19.7619 33.811 19.8022C33.7684 19.8424 33.7444 19.8969 33.7443 19.9538V22.7777C33.7442 23.0952 33.6104 23.3997 33.3725 23.6242C33.1345 23.8487 32.8117 23.9749 32.4751 23.975H29.4802C29.42 23.9751 29.3623 23.9977 29.3196 24.0378C29.277 24.0779 29.253 24.1324 29.2527 24.1892V24.1915C29.2527 24.2723 29.3041 24.3446 29.3804 24.3819C29.7866 24.5809 30.1091 24.9042 30.2951 25.2988C30.4811 25.6933 30.5196 26.1358 30.4042 26.5537C30.2888 26.9715 30.0263 27.34 29.6599 27.5988C29.2935 27.8576 28.8447 27.9913 28.3872 27.978C27.3154 27.9454 26.434 27.0873 26.434 26.0761C26.4337 25.7261 26.5355 25.3827 26.7282 25.0835C26.9209 24.7844 27.1971 24.541 27.5266 24.38C27.5644 24.3623 27.5963 24.3352 27.6189 24.3015C27.6414 24.2679 27.6536 24.229 27.6542 24.1892C27.654 24.1324 27.63 24.0781 27.5874 24.0379C27.5449 23.9978 27.4873 23.9752 27.4271 23.975H24.4318C24.0952 23.9749 23.7725 23.8487 23.5345 23.6242C23.2965 23.3997 23.1627 23.0952 23.1626 22.7777V19.9538C23.1625 19.8969 23.1385 19.8424 23.0959 19.8022C23.0533 19.7619 22.9955 19.7393 22.9351 19.7392C22.8923 19.7396 22.8504 19.7513 22.8143 19.7731C22.7782 19.7948 22.7493 19.8257 22.7309 19.8623C22.5603 20.1714 22.3031 20.4305 21.9874 20.6114C21.6716 20.7924 21.3093 20.8882 20.9399 20.8884C20.669 20.8886 20.4007 20.8372 20.1513 20.7374C19.9019 20.6376 19.6763 20.4914 19.4881 20.3075C19.2999 20.1237 19.1529 19.9059 19.0559 19.6672C18.9588 19.4285 18.9138 19.1739 18.9235 18.9184C18.9585 17.9096 19.8652 17.0823 20.935 17.08C21.3052 17.0786 21.6687 17.1737 21.9852 17.3548C22.3018 17.536 22.5591 17.7961 22.7289 18.1065C22.7704 18.1811 22.8471 18.2292 22.9351 18.2292C23.0603 18.2292 23.1626 18.133 23.1626 18.0146V15.1911C23.1621 14.8843 23.2869 14.5891 23.5111 14.3669C23.7353 14.1447 24.0417 14.0126 24.3666 13.998C24.3873 14.0004 24.4106 14.0004 24.4318 14.0004H27.4271C27.4784 14.0001 27.5282 14.0162 27.5685 14.0462C27.6087 14.0762 27.6369 14.1182 27.6485 14.1653C27.6601 14.2125 27.6543 14.2619 27.6322 14.3055C27.61 14.3491 27.5728 14.3843 27.5266 14.4054C27.1972 14.5659 26.921 14.8089 26.7283 15.1076C26.5356 15.4064 26.4338 15.7495 26.434 16.0992C26.434 17.1127 27.3154 17.9707 28.3876 18.0015C28.6581 18.0099 28.9277 17.9668 29.1802 17.8748C29.4327 17.7829 29.663 17.6439 29.8574 17.4662C30.0518 17.2885 30.2063 17.0758 30.3117 16.8406C30.4171 16.6054 30.4712 16.3526 30.4709 16.0973C30.4716 15.7482 30.3701 15.4057 30.1777 15.1075C29.9853 14.8093 29.7094 14.567 29.3804 14.4073C29.3423 14.3895 29.3103 14.3621 29.2878 14.3281C29.2653 14.2942 29.2531 14.255 29.2527 14.215V14.2127C29.2527 14.0942 29.3547 14.0004 29.4802 14.0004H32.4756C32.4963 14.0004 32.5196 14.0004 32.5408 13.998C32.8656 14.0126 33.172 14.1447 33.3962 14.3669C33.6205 14.5891 33.7453 14.8843 33.7447 15.1911V18.0146C33.7447 18.1327 33.8466 18.2292 33.9722 18.2292C34.0578 18.2292 34.1345 18.1811 34.174 18.1088C34.3444 17.7983 34.6021 17.5381 34.9189 17.3566C35.2357 17.1752 35.5993 17.0794 35.9699 17.08C37.0417 17.0823 37.9488 17.9096 37.9839 18.9184H37.9831Z" fill="#F34B50"/>
</svg>
