<svg width="26" height="34" viewBox="0 0 26 34" fill="none" xmlns="http://www.w3.org/2000/svg">
<path d="M14.6774 17.748H11.3226C8.32069 17.7512 5.44273 18.8529 3.32008 20.8116C1.19742 22.7702 0.0034141 25.4258 0 28.1957V29.7435C0.00124338 30.872 0.487643 31.954 1.35246 32.752C2.21728 33.55 3.38987 33.9988 4.6129 33.9999H21.3871C22.6101 33.9988 23.7827 33.55 24.6475 32.752C25.5124 31.954 25.9988 30.872 26 29.7435V28.1957C25.9966 25.4258 24.8026 22.7702 22.6799 20.8116C20.5573 18.8529 17.6793 17.7512 14.6774 17.748Z" fill="#4285F4"/>
<path d="M13.0225 16.2519C17.8862 16.2519 21.829 12.6138 21.829 8.12595C21.829 3.63811 17.8862 0 13.0225 0C8.15885 0 4.21606 3.63811 4.21606 8.12595C4.21606 12.6138 8.15885 16.2519 13.0225 16.2519Z" fill="#AFCBF9"/>
</svg>
