<svg width="45" height="51" viewBox="0 0 45 51" fill="none" xmlns="http://www.w3.org/2000/svg">
<path d="M18.75 19.125H21.5625V20.1875H17.8125V19.125H15.9375V21.25H17.8125V22.3125H21.5625V23.375H16.875V22.3125H15V24.4375H16.875V25.5H15.9375V27.625H16.875V28.6875H21.5625V29.75H17.8125V30.8125H16.875V31.875H15.9375V34H16.875V35.0625H17.8125V36.125H21.5625V35.0625H23.4375V36.125H27.1875V35.0625H28.125V34H29.0625V31.875H28.125V30.8125H27.1875V29.75H23.4375V28.6875H28.125V27.625H29.0625V25.5H28.125V24.4375H30V22.3125H28.125V23.375H23.4375V22.3125H27.1875V21.25H29.0625V19.125H27.1875V20.1875H23.4375V19.125H26.25V18.0625H28.125V15.9375H26.25V17H23.4375V14.875H21.5625V17H18.75V15.9375H16.875V18.0625H18.75V19.125ZM20.625 34H18.75V31.875H20.625V34ZM21.5625 26.5625H17.8125V25.5H21.5625V26.5625ZM24.375 31.875H26.25V34H24.375V31.875ZM23.4375 25.5H27.1875V26.5625H23.4375V25.5ZM14.0625 24.4375H12.1875V15.9375H13.125V14.875H15.9375V17H14.0625V24.4375ZM14.0625 35.0625H12.1875V25.5H14.0625V35.0625ZM30.9375 17H29.0625V14.875H31.875V15.9375H32.8125V24.4375H30.9375V17ZM30.9375 25.5H32.8125V35.0625H30.9375V25.5ZM38.4375 11.6875V10.625H27.1875V9.5625H28.125V3.1875H27.1875V2.125H26.25V1.0625H25.3125V0H19.6875V1.0625H18.75V2.125H17.8125V3.1875H16.875V9.5625H17.8125V10.625H6.5625V11.6875H5.625V39.3125H6.5625V40.375H15.9375V48.875H16.875V49.9375H17.8125V51H21.5625V49.9375H23.4375V51H27.1875V49.9375H28.125V48.875H29.0625V40.375H38.4375V39.3125H39.375V11.6875H38.4375ZM18.75 4.25H19.6875V3.1875H20.625V2.125H24.375V3.1875H25.3125V4.25H26.25V8.5H25.3125V9.5625H24.375V10.625H20.625V9.5625H19.6875V8.5H18.75V4.25ZM21.5625 47.8125H20.625V48.875H18.75V47.8125H17.8125V40.375H21.5625V47.8125ZM27.1875 47.8125H26.25V48.875H24.375V47.8125H23.4375V40.375H27.1875V47.8125ZM37.5 38.25H7.5V12.75H37.5V38.25Z" fill="black"/>
</svg>
