<svg width="51" height="44" viewBox="0 0 51 44" fill="none" xmlns="http://www.w3.org/2000/svg">
<path d="M44.0461 9.80584C41.4186 -2.99552 28.5217 3.72328 25.5 6.01744C22.4782 3.72372 9.58136 -2.99508 6.95384 9.80584C4.15394 23.4498 16.2506 18.8624 13.3518 29.414C12.369 32.9916 12.8576 41.8 16.295 41.8C19.7324 41.8 16.9279 30.6108 25.5 26.8932C34.0721 30.6108 31.2676 41.8 34.705 41.8C38.1424 41.8 38.6315 32.9916 37.6482 29.414C34.7493 18.8624 46.846 23.4498 44.0461 9.80584Z" stroke="black" stroke-width="3" stroke-miterlimit="10" stroke-linejoin="round"/>
<path d="M25.5 6.01733C27.8281 7.69329 29.5876 7.58681 32.0994 7.69329" stroke="black" stroke-width="3" stroke-miterlimit="10" stroke-linecap="round" stroke-linejoin="round"/>
<path d="M13.1187 5.75439C11.1476 7.47743 9.40438 14.7401 12.2094 17.8201" stroke="black" stroke-width="2.995" stroke-miterlimit="10" stroke-linecap="round"/>
</svg>
