<svg width="56" height="49" viewBox="0 0 56 49" fill="none" xmlns="http://www.w3.org/2000/svg">
<path d="M25.76 28.022C25.76 28.022 26.3025 35.6231 26.572 39.1848C26.635 40.0224 27.1495 40.7513 28.3815 40.7513H30.1893C30.9768 40.7513 31.9043 40.4802 31.9988 39.1848C32.2525 35.6231 32.76 28.022 32.76 28.022H25.76Z" fill="#E79F8A"/>
<path d="M32.4502 28.022C32.4502 28.022 31.9007 35.6124 31.6295 39.1725C31.5665 40.0117 31.0555 40.7513 29.8252 40.7513H28.021C27.9317 40.7513 27.8372 40.7666 27.7462 40.7513C28.889 40.7053 30.135 39.9826 30.1962 39.1725C30.4675 35.6124 31.017 28.0235 31.017 28.0235L32.4502 28.022Z" fill="#FF8E6F"/>
<path d="M26.1887 28.022C26.1887 28.022 26.7382 35.6124 27.0095 39.1725C27.0725 40.0117 27.5835 40.7513 28.812 40.7513H30.618C30.7055 40.7513 30.8 40.7666 30.891 40.7513C29.75 40.7053 28.504 39.9826 28.441 39.1725C28.1715 35.6124 27.622 28.0235 27.622 28.0235L26.1887 28.022Z" fill="#FF8E6F"/>
<path d="M25.76 28.022C25.76 28.022 26.3025 35.6231 26.572 39.1848C26.635 40.0224 27.1495 40.7513 28.3815 40.7513H30.1893C30.9768 40.7513 31.9043 40.4802 31.9988 39.1848C32.2525 35.6231 32.76 28.022 32.76 28.022H25.76Z" stroke="#373449" stroke-linecap="round" stroke-linejoin="round"/>
<path d="M46.5482 16.6079C45.633 16.3017 50.148 14.6877 50.6047 14.2192C51.4675 13.3357 51.1647 11.8856 49.5775 11.9315C47.684 11.9866 47.1362 13.0707 44.737 13.965C42.3377 14.8608 41.195 15.0935 37.0807 16.2619C36.6887 16.3737 36.0045 16.3155 36.1322 16.66C37.17 19.4484 36.4385 21.462 35.77 24.1539C35.1032 26.8443 35.266 28.7293 34.4872 30.7215C34.09 31.7382 33.432 33.4548 33.432 33.4548H31.01V28.3465H27.4995V33.4548H25.2577C25.2577 33.4548 24.6627 32.657 23.9417 30.625C23.2242 28.5946 23.1192 26.656 22.6047 24.0177C22.0902 21.3793 21.2747 19.6812 22.5732 16.8376C22.7587 16.4318 22.1795 16.0904 21.175 16.0904C21.021 16.0904 18.6795 15.3875 17.57 15.1073C16.4605 14.8271 15.3895 14.334 13.9737 13.7537C12.5562 13.1733 10.2795 11.6773 9.26623 11.5885C7.06648 11.3956 5.45823 13.9068 6.64648 15.1624C7.45848 16.0199 7.86273 16.4579 10.514 16.7978C8.25998 16.8284 8.35273 18.5664 9.13673 19.6214C6.99998 18.9186 6.18273 19.8879 5.86598 20.949C5.75923 20.1727 3.50348 19.1207 2.65823 20.0839C0.866228 17.3659 0.729728 12.8257 3.75723 9.21812C6.78473 5.60897 16.8367 13.1519 21.8785 13.1519C24.3652 13.1948 26.0137 11.3374 29.358 11.3879C32.5482 11.4338 34.3402 13.3418 36.8077 13.057C41.6342 12.616 45.4195 10.094 49.8785 8.46322C55.9002 7.04987 55.552 15.5422 52.3985 19.0487C51.968 19.4959 53.1107 21.2308 53.1107 21.2308C52.136 21.1006 51.0562 19.8511 49.3395 21.8188C49.3885 19.8128 48.167 19.4836 46.6497 19.4989C47.8362 19.012 48.7777 17.1316 46.5482 16.6079Z" fill="#FFAF99"/>
<path d="M21.9345 16.8253C20.6378 19.6689 21.42 21.3655 21.9345 24.0038C22.4507 26.6422 22.582 28.5762 23.3012 30.6066C24.0205 32.637 24.6137 33.4777 24.6137 33.4777H26.8572V32.7121C26.6227 32.2573 26.1957 31.8959 25.9822 30.9113C25.5342 28.8472 25.053 27.149 24.5367 24.5107C24.0222 21.8723 22.1952 19.6689 23.4937 16.8253C23.45 16.7794 21.9345 16.8253 21.9345 16.8253Z" fill="#FF8E6F"/>
<path d="M22.33 16.2358C23.4902 16.5252 26.383 16.2603 26.607 18.5067C26.7697 20.1497 27.188 21.7698 27.6115 23.3791C27.804 24.1095 28.273 24.7955 28.308 25.5443C28.35 26.4386 28.308 27.8442 28.308 27.8442" stroke="#FF8E6F" stroke-linecap="round" stroke-linejoin="round"/>
<path d="M21.434 16.1133C22.0465 16.0673 25.7477 16.2572 25.9717 18.5066C26.1345 20.1496 26.5527 21.7697 26.9762 23.379C27.1687 24.1094 27.636 24.7954 27.6727 25.5442C27.7147 26.4385 27.6727 27.8442 27.6727 27.8442" stroke="#373449" stroke-linecap="round" stroke-linejoin="round"/>
<path d="M36.5925 16.8254C37.8893 19.6689 36.7798 21.3655 36.2635 24.0039C35.749 26.6422 35.4796 28.5762 34.7603 30.6066C34.0428 32.6371 33.3708 33.2756 33.3708 33.2756L31.6698 33.4777V32.7121C31.9043 32.2573 32.3313 31.8959 32.5448 30.9113C32.9928 28.8472 33.4741 27.1491 33.9903 24.5107C34.5048 21.8724 36.1673 19.4775 35.28 16.8499C35.3238 16.8024 36.5925 16.8254 36.5925 16.8254Z" fill="#FF8E6F"/>
<path d="M36.274 16.2832C35.1155 16.5726 31.976 16.2587 31.752 18.5066C31.5893 20.1496 31.171 21.7697 30.7475 23.379C30.555 24.1094 30.086 24.7939 30.051 25.5442C30.009 26.4385 30.051 27.8441 30.051 27.8441" stroke="#FF8E6F" stroke-linecap="round" stroke-linejoin="round"/>
<path d="M36.9303 16.2603C35.7718 16.5481 32.6323 16.2603 32.4083 18.5066C32.2455 20.1496 31.8273 21.7697 31.4038 23.379C31.2113 24.1094 30.7423 24.7954 30.7073 25.5442C30.6653 26.4385 30.7073 27.8442 30.7073 27.8442" stroke="#373449" stroke-linecap="round" stroke-linejoin="round"/>
<path d="M6.13022 8.25947C5.14847 8.27478 4.34522 8.53969 3.77822 9.2165C2.11086 11.2078 1.28064 13.6419 1.42797 16.1071C1.54697 14.1823 2.26447 12.8394 3.77822 11.0356C6.80747 7.42647 16.8385 15.0062 21.8802 15.0062C24.3687 15.049 26.0277 13.187 29.372 13.236C32.5622 13.2835 34.342 15.196 36.8095 14.9112C41.6377 14.4718 45.423 11.9498 49.8802 10.3175C53.0302 9.57941 54.4092 10.8304 54.5842 13.38C54.7802 10.3205 53.4852 7.60716 49.8802 8.45088C45.423 10.0832 41.6377 12.6052 36.8095 13.0446C34.342 13.331 32.5622 11.4169 29.372 11.3694C26.0277 11.3204 24.367 13.184 21.8802 13.1411C17.7852 13.1411 10.3862 8.1921 6.13022 8.25947ZM22.3177 17.447C21.9345 18.479 21.8837 19.3656 21.9345 20.2231C22.0115 19.5279 22.2075 18.8144 22.5907 17.9737C22.6835 17.7701 22.5645 17.5833 22.3177 17.447ZM36.372 17.4944C36.197 17.5404 36.0955 17.6246 36.1532 17.7823C36.4612 18.6077 36.547 19.3518 36.5907 20.0792C36.6659 19.2129 36.5921 18.3416 36.372 17.4944ZM8.75522 18.8343C8.68347 19.0242 8.63272 19.2447 8.64497 19.4575C8.80247 19.4927 8.96347 19.5433 9.13847 19.5999C8.96594 19.3637 8.83663 19.1054 8.75522 18.8343ZM52.5052 20.0317C52.4667 20.0777 52.4352 20.1313 52.395 20.1741C52.2375 20.338 52.3215 20.6764 52.451 21.0362C52.6715 21.1235 52.899 21.2001 53.1072 21.2276C53.1072 21.2276 52.7397 20.6274 52.5052 20.0317Z" fill="#FFCBBD"/>
<path d="M46.5482 16.6079C45.633 16.3017 50.148 14.6877 50.6047 14.2192C51.4675 13.3357 51.1647 11.8856 49.5775 11.9315C47.684 11.9866 47.1362 13.0707 44.737 13.965C42.3377 14.8608 41.195 15.0935 37.0807 16.2619C36.6887 16.3737 36.0045 16.3155 36.1322 16.66C37.17 19.4484 36.4385 21.462 35.77 24.1539C35.1032 26.8443 35.266 28.7293 34.4872 30.7215C34.09 31.7382 33.432 33.4548 33.432 33.4548H31.01V28.3465H27.4995V33.4548H25.2577C25.2577 33.4548 24.6627 32.657 23.9417 30.625C23.2242 28.5946 23.1192 26.656 22.6047 24.0177C22.0902 21.3793 21.2747 19.6812 22.5732 16.8376C22.7587 16.4318 22.1795 16.0904 21.175 16.0904C21.021 16.0904 18.6795 15.3875 17.57 15.1073C16.4605 14.8271 15.3895 14.334 13.9737 13.7537C12.5562 13.1733 10.2795 11.6773 9.26623 11.5885C7.06648 11.3956 5.45823 13.9068 6.64648 15.1624C7.45848 16.0199 7.86273 16.4579 10.514 16.7978C8.25998 16.8284 8.35273 18.5664 9.13673 19.6214C6.99998 18.9186 6.18273 19.8879 5.86598 20.949C5.75923 20.1727 3.50348 19.1207 2.65823 20.0839C0.866227 17.3659 0.729728 12.8257 3.75723 9.21812C6.78473 5.60897 16.8367 13.1519 21.8785 13.1519C24.3652 13.1948 26.0137 11.3374 29.358 11.3879C32.5482 11.4338 34.3402 13.3418 36.8077 13.057C41.6342 12.616 45.4195 10.094 49.8785 8.46322C55.9002 7.04987 55.552 15.5422 52.3985 19.0487C51.968 19.4959 53.1107 21.2308 53.1107 21.2308C52.136 21.1006 51.0562 19.8511 49.3395 21.8188C49.3885 19.8128 48.167 19.4836 46.6497 19.4989C47.8362 19.012 48.7777 17.1316 46.5482 16.6079Z" stroke="#373449" stroke-linecap="round" stroke-linejoin="round"/>
</svg>
